<svg version="1.1" id="Layer_1" xmlns="http://www.w3.org/2000/svg" xmlns:xlink="http://www.w3.org/1999/xlink" x="0px" y="0px"
	 width="100%" viewBox="0 0 1080 1080" enable-background="new 0 0 1080 1080" xml:space="preserve">
<path fill="#FFFFFF" opacity="1.000000" stroke="none" 
	d="
M1075.100952,1081.000000 
	C718.417236,1081.000000 362.253845,1080.992798 6.090528,1081.092163 
	C2.100283,1081.093262 0.868745,1080.565918 0.870513,1076.090576 
	C1.011401,719.427246 1.007036,362.763885 0.910111,6.100568 
	C0.909034,2.136870 1.396752,0.866817 5.899415,0.868623 
	C362.562714,1.011647 719.226074,1.006802 1075.889404,0.912398 
	C1079.826538,0.911356 1081.135010,1.359323 1081.133179,5.889375 
	C1080.988037,362.552673 1080.988892,719.216064 1081.122559,1075.879395 
	C1081.124268,1080.503418 1079.887207,1081.890747 1075.100952,1081.000000 
z"/>
<path fill="#0A0A0A" opacity="1.000000" stroke="none" 
	d="
M335.115234,782.956177 
	C333.696899,783.188660 332.678986,783.626892 331.743286,783.492554 
	C330.141266,783.262512 327.672363,786.043701 327.024872,782.534180 
	C326.529968,779.851685 326.741364,777.584534 330.633240,776.964600 
	C343.928070,774.846802 357.155060,772.303040 370.407806,769.921082 
	C371.694244,769.689880 373.046021,769.644775 374.545929,768.217957 
	C369.276917,766.471069 364.311554,764.775269 359.314331,763.179199 
	C350.459320,760.351074 341.566498,757.639954 332.731842,754.750427 
	C330.591797,754.050476 327.851379,754.128967 328.096619,750.218140 
	C328.328247,746.524658 330.677917,746.545105 333.032257,746.015686 
	C347.097290,742.853210 361.164124,739.698669 375.724243,736.430603 
	C374.513672,734.538025 372.863159,734.450684 371.431854,734.054993 
	C358.629211,730.515503 345.829346,726.965088 333.006287,723.500793 
	C330.931427,722.940247 329.476044,722.526245 329.643646,719.710388 
	C329.812683,716.869873 330.309479,716.079468 333.299713,716.932129 
	C349.905487,721.667419 366.528839,726.353577 383.239349,730.698364 
	C386.728149,731.605469 386.214691,733.561096 386.081390,735.828064 
	C385.945007,738.147034 386.771301,740.491882 382.865997,741.258911 
	C371.297516,743.531128 359.846497,746.402588 348.353455,749.056641 
	C346.651154,749.449768 344.970062,749.934875 343.188141,751.412476 
	C347.448761,752.862366 351.695984,754.353149 355.972809,755.753540 
	C364.174194,758.439026 372.323944,761.320984 380.634766,763.615540 
	C384.341736,764.639038 384.841156,766.412476 384.896484,769.866150 
	C384.962646,773.996704 382.496338,774.305054 379.702393,774.817017 
	C364.985931,777.513489 350.269257,780.208740 335.115234,782.956177 
z"/>
<path fill="#090909" opacity="1.000000" stroke="none" 
	d="
M423.921997,595.144897 
	C421.250610,591.321594 421.668915,589.282654 426.115814,587.637939 
	C432.467194,585.288879 438.242676,581.495911 444.843262,579.650818 
	C455.342224,576.715881 464.306458,579.656738 470.943909,588.279175 
	C474.748260,593.221130 477.315857,598.800598 478.723969,604.836853 
	C481.088470,614.973450 477.511993,623.903992 468.731628,630.051208 
	C462.302643,634.552185 454.814880,637.024902 447.931885,640.660156 
	C445.110687,642.150208 444.868164,639.682007 444.189636,638.253113 
	C437.433014,624.024048 430.753174,609.758484 423.921997,595.144897 
z"/>
<path fill="#0A0A0A" opacity="1.000000" stroke="none" 
	d="
M681.814392,707.828735 
	C678.647278,709.379089 675.762390,710.570251 672.655029,711.283081 
	C658.100281,714.621948 646.834961,702.700378 651.030151,688.341736 
	C651.159302,687.899536 651.168762,687.422302 651.351746,686.131104 
	C645.244507,688.958679 639.595215,691.454285 634.066162,694.192566 
	C631.816284,695.306702 630.507446,695.759827 629.078064,692.904419 
	C627.565430,689.882690 629.214111,689.308960 631.279358,688.337769 
	C647.024780,680.932739 662.730042,673.442261 678.496399,666.082336 
	C680.210999,665.281982 682.049133,662.907349 684.033813,666.550598 
	C686.017700,670.192261 683.711609,670.764587 681.457703,671.826782 
	C681.029785,672.028442 680.616089,672.260437 679.230103,672.979309 
	C688.029297,675.199829 692.708740,680.150513 694.018982,687.812439 
	C695.704834,697.670898 689.762634,703.230774 681.814392,707.828735 
z"/>
<path fill="#090909" opacity="1.000000" stroke="none" 
	d="
M364.109680,650.829468 
	C362.666840,649.666504 361.556610,648.649902 360.326263,647.809021 
	C357.762695,646.056702 359.763000,644.862854 360.716553,643.438293 
	C361.874817,641.707764 362.857727,641.428711 364.617249,642.929993 
	C369.781799,647.336426 375.120331,651.538940 380.830688,656.178772 
	C380.830688,654.163696 380.848785,652.643921 380.827789,651.124634 
	C380.662994,639.200256 392.189545,630.833191 403.468597,634.754517 
	C410.105591,637.061951 415.429535,641.267639 419.494537,646.903137 
	C427.973450,658.657837 421.428223,673.319092 407.022308,675.120483 
	C406.584778,675.175171 406.162781,675.354187 405.794434,675.458008 
	C405.389374,677.956238 409.905151,677.822083 408.376282,680.493347 
	C406.983582,682.926697 405.743866,685.151917 402.132965,682.071350 
	C389.746307,671.504089 376.998199,661.360474 364.109680,650.829468 
z"/>
<path fill="#0A0A0A" opacity="1.000000" stroke="none" 
	d="
M348.239258,848.695190 
	C342.838287,838.915222 343.876556,829.787354 349.999573,821.243774 
	C355.779083,813.179504 363.167084,807.230225 373.306641,805.454895 
	C387.176788,803.026245 402.738434,816.448486 402.076660,830.346436 
	C402.006805,831.813904 401.502380,833.256470 401.262817,834.721008 
	C400.825745,837.392822 399.196777,837.118652 397.192169,836.615356 
	C395.117462,836.094421 394.775879,835.147217 395.140991,833.074402 
	C397.348267,820.544495 385.903839,808.991516 373.885406,812.318665 
	C363.082245,815.309387 355.365112,822.540100 351.861572,833.489807 
	C349.737885,840.127014 352.585999,845.522278 357.129211,850.148621 
	C361.570038,854.670715 366.824066,856.409729 373.018677,854.124023 
	C374.776062,853.475586 376.255402,852.725525 377.113312,855.536621 
	C377.848938,857.947205 377.450684,859.039734 375.104218,859.980530 
	C365.545471,863.812683 356.024353,859.957825 348.239258,848.695190 
z"/>
<path fill="#0B0B0B" opacity="1.000000" stroke="none" 
	d="
M354.541748,694.866089 
	C354.666687,689.301636 356.265656,684.647827 359.539886,680.651917 
	C364.994049,673.995605 377.084869,673.110413 383.610474,678.647766 
	C385.418640,680.182068 384.152039,681.404480 383.671600,682.580139 
	C380.720306,689.802368 377.748413,697.021362 374.530304,704.126770 
	C373.281250,706.884644 373.903046,707.887207 376.726288,708.513855 
	C381.812317,709.642700 386.503082,709.265198 389.850372,704.910706 
	C393.324402,700.391357 395.688446,695.276001 392.193634,689.763916 
	C390.483856,687.067200 391.494019,685.950195 393.611603,684.772339 
	C396.272705,683.292114 396.692108,685.930969 397.445343,687.176392 
	C403.775482,697.642517 395.069397,714.516479 382.386078,715.426208 
	C372.203491,716.156616 363.534760,712.076904 357.275879,703.709778 
	C355.441925,701.258057 354.711304,698.329407 354.541748,694.866089 
z"/>
<path fill="#0B0B0B" opacity="1.000000" stroke="none" 
	d="
M509.850037,599.656616 
	C505.119385,600.230774 500.833466,600.786682 496.533478,601.194214 
	C494.405457,601.395935 493.685883,602.223022 494.106537,604.413147 
	C495.081726,609.490112 498.967682,613.866760 503.647858,614.851440 
	C509.294495,616.039490 515.618286,613.961731 518.176941,609.606079 
	C519.485840,607.377991 520.390930,606.286194 523.059692,607.760376 
	C526.242981,609.518982 523.875000,611.254944 523.118103,612.602112 
	C516.729309,623.973022 496.943146,623.867493 490.311646,612.337708 
	C486.262085,605.296997 485.348633,597.520996 487.353424,589.676514 
	C489.777985,580.189758 500.054565,574.354126 510.040131,576.376953 
	C518.400757,578.070679 524.531067,586.882874 523.733643,595.866394 
	C523.572937,597.677185 522.628235,597.963257 521.156616,598.131897 
	C517.526550,598.548035 513.910583,599.087341 509.850037,599.656616 
z"/>
<path fill="#0A0A0A" opacity="1.000000" stroke="none" 
	d="
M706.984497,739.029968 
	C704.081482,747.843872 697.694153,752.253052 688.470520,752.614441 
	C685.854187,752.716980 685.874695,751.205872 685.615784,749.585205 
	C684.382812,741.867676 683.020691,734.166077 682.024963,726.417664 
	C681.610046,723.188416 680.665161,722.584656 677.578003,723.686035 
	C672.397644,725.534058 668.766113,728.653076 668.367065,734.251648 
	C667.974365,739.761292 669.050476,745.118103 674.639099,747.826599 
	C677.255676,749.094727 677.011841,750.297058 676.088989,752.412537 
	C674.755798,755.469116 672.930664,753.440918 671.627197,752.805359 
	C660.406738,747.333679 659.010986,727.834961 669.473572,720.541260 
	C676.950745,715.328735 685.489136,714.016174 694.252258,716.459595 
	C703.296204,718.981323 707.565308,726.796570 706.984497,739.029968 
z"/>
<path fill="#0A0A0A" opacity="1.000000" stroke="none" 
	d="
M573.566162,625.305664 
	C565.746338,614.963379 574.767029,594.891235 584.614258,590.758911 
	C591.986450,587.665161 602.482727,590.019409 607.769592,596.428284 
	C612.184814,601.780579 612.076050,611.578979 607.745178,618.026123 
	C606.352783,620.098816 604.994629,619.241760 603.500244,618.586853 
	C596.507385,615.522217 589.427124,612.632751 582.579651,609.270142 
	C579.010071,607.517273 578.077759,608.815735 577.415283,612.031372 
	C576.389893,617.008972 577.149780,621.436401 581.285950,624.627075 
	C585.700867,628.032837 590.734009,630.075745 596.067017,627.009766 
	C598.729675,625.479004 599.881042,626.158936 601.102600,628.385986 
	C602.579773,631.078918 599.988831,631.380798 598.720337,632.188477 
	C594.815674,634.674683 590.523193,634.715820 586.215698,633.478577 
	C581.325806,632.074036 576.977478,629.729370 573.566162,625.305664 
z"/>
<path fill="#0A0A0A" opacity="1.000000" stroke="none" 
	d="
M455.442963,871.681091 
	C460.234924,878.891235 458.069275,885.600098 455.105469,892.345032 
	C454.006653,894.845764 452.539062,893.676636 451.056396,893.063904 
	C443.693878,890.021057 436.276642,887.099609 429.008026,883.846497 
	C426.329773,882.647766 425.563782,883.405396 424.993378,885.915833 
	C423.801178,891.162842 424.180542,896.009338 428.768463,899.447388 
	C433.367767,902.893799 438.521118,904.882690 443.985992,901.466064 
	C446.108124,900.139221 446.945709,900.512390 448.332642,902.299744 
	C450.217987,904.729309 448.349365,905.586548 446.882568,906.497803 
	C439.431000,911.126465 432.443237,908.742554 425.830627,904.625549 
	C419.103729,900.437317 416.394012,893.154419 418.377106,885.032776 
	C419.118408,881.996704 420.235474,878.983887 421.637054,876.189026 
	C428.885956,861.734436 443.931335,859.635498 455.442963,871.681091 
z"/>
<path fill="#0B0B0B" opacity="1.000000" stroke="none" 
	d="
M483.773193,894.241699 
	C485.220490,894.116516 486.223358,894.078674 487.207764,893.923767 
	C490.119934,893.465393 492.224365,892.042053 492.475128,888.878296 
	C492.742249,885.508362 490.813324,883.712952 487.783752,882.764099 
	C482.906830,881.236694 478.307800,881.571533 473.959961,884.459351 
	C472.814636,885.220093 471.619568,887.525635 470.092255,884.775391 
	C468.985382,882.782288 468.177429,881.179810 470.851990,879.407104 
	C477.206085,875.195374 488.488068,875.142273 494.475342,879.738403 
	C498.478912,882.811768 499.437469,886.997681 498.615570,891.773193 
	C497.488068,898.324463 496.291595,904.865784 495.302490,911.438110 
	C494.879669,914.247559 493.626404,917.692078 498.596741,918.044250 
	C500.692505,918.192749 499.779968,920.046875 499.884033,921.201416 
	C500.030823,922.829590 498.838440,923.025940 497.580200,923.054199 
	C492.614105,923.165894 489.412415,921.005859 488.569397,915.316223 
	C483.063385,921.117920 476.824158,921.168457 470.353638,918.806274 
	C465.211823,916.929199 462.747101,912.747498 462.959930,907.071594 
	C463.180237,901.197021 465.739777,897.565552 470.983643,895.725769 
	C474.985229,894.321777 479.186737,894.578308 483.773193,894.241699 
z"/>
<path fill="#0A0A0A" opacity="1.000000" stroke="none" 
	d="
M679.416809,838.851196 
	C674.672485,829.638184 669.838684,820.734009 665.177734,811.740173 
	C662.206299,806.006409 661.683472,808.054504 666.548401,802.660767 
	C668.138000,803.299683 668.388550,804.925537 669.060181,806.197937 
	C676.659729,820.593811 684.311890,834.963013 691.760498,849.436890 
	C696.430420,858.511353 694.902100,865.564880 687.490967,871.086670 
	C686.025024,872.178894 684.711426,873.477905 683.074036,871.054077 
	C681.817322,869.193848 681.778687,868.329529 683.713684,866.727051 
	C691.519592,860.262695 689.612000,850.540833 680.060425,847.118958 
	C666.940735,842.418701 653.820374,837.720520 640.602417,832.986328 
	C642.500977,828.134827 645.237610,827.450012 649.807617,829.340393 
	C659.006042,833.145325 668.460388,836.331421 678.190430,839.795959 
	C678.872192,839.615601 679.147339,839.381836 679.416809,838.851196 
z"/>
<path fill="#090909" opacity="1.000000" stroke="none" 
	d="
M665.164612,641.947998 
	C668.695618,654.441467 659.894287,668.168457 646.466919,671.672485 
	C636.412720,674.296265 625.297241,666.832336 622.587769,655.714233 
	C621.937744,653.046753 622.067383,650.495422 622.767883,647.863770 
	C625.935791,635.962097 640.102417,626.236694 650.639465,628.874207 
	C657.599609,630.616333 662.002563,635.348450 665.164612,641.947998 
z"/>
<path fill="#0B0B0B" opacity="1.000000" stroke="none" 
	d="
M563.583008,595.684448 
	C559.281921,603.394104 555.029358,610.718872 551.192505,618.255249 
	C549.809875,620.971008 548.124084,621.334900 545.644531,620.677734 
	C543.264893,620.046936 540.655396,620.502319 539.908264,616.664368 
	C537.530273,604.449463 534.552795,592.352234 531.994019,580.170288 
	C531.664368,578.601013 529.397278,575.932495 532.167542,575.300537 
	C534.808533,574.698059 537.699219,575.266968 538.464661,579.576355 
	C540.262573,589.698730 542.794678,599.691162 545.056030,609.730225 
	C545.302551,610.824829 545.721863,611.880493 546.354675,613.883545 
	C551.063782,605.367981 555.370850,597.580750 559.676392,589.792603 
	C560.720215,587.904602 562.022156,586.109192 562.747620,584.105408 
	C564.444031,579.419922 567.353088,579.171265 571.418518,581.395813 
	C568.845459,586.117249 566.320618,590.750183 563.583008,595.684448 
z"/>
<path fill="#0B0B0B" opacity="1.000000" stroke="none" 
	d="
M570.156860,880.808472 
	C576.513611,888.292480 582.647461,895.500488 588.911072,902.860901 
	C590.597168,901.101624 589.880737,899.203674 589.917297,897.540283 
	C590.121826,888.222229 590.480042,878.892883 590.202087,869.584839 
	C590.057556,864.746521 592.090210,863.007080 596.084229,862.851929 
	C596.084229,874.769897 596.087646,886.689209 596.081116,898.608582 
	C596.079956,900.772217 595.769409,902.975098 596.078247,905.090332 
	C596.546631,908.298340 594.555542,909.120483 592.199402,909.736023 
	C589.980774,910.315735 588.032654,912.022705 585.657104,909.128296 
	C576.688660,898.201416 567.387268,887.547729 558.198059,876.777222 
	C563.688293,873.350647 563.688293,873.350647 570.156860,880.808472 
z"/>
<path fill="#0A0A0A" opacity="1.000000" stroke="none" 
	d="
M522.004272,922.146118 
	C517.310120,919.629395 516.209167,915.558044 516.023743,911.061218 
	C515.722229,903.746155 515.331238,896.429382 515.290466,889.111511 
	C515.273010,885.979309 514.521851,884.509583 511.146759,885.129089 
	C509.309143,885.466370 507.643646,885.588074 507.545441,882.652466 
	C507.444672,879.639648 509.231201,879.755005 511.021057,880.029114 
	C515.041382,880.644714 515.205872,878.436401 514.972412,875.396790 
	C514.855530,873.875000 513.881653,871.794495 515.621765,870.805054 
	C516.964966,870.041260 518.938477,869.614746 520.372009,870.001465 
	C521.764709,870.377014 521.213135,872.399170 521.058289,873.585693 
	C520.386047,878.735535 522.412292,880.542603 527.462463,879.434387 
	C529.222778,879.048157 531.119507,879.331848 532.935913,879.139526 
	C534.772095,878.945129 535.234619,879.851624 535.252869,881.437012 
	C535.270569,882.971191 535.542603,884.571899 533.200439,884.511719 
	C532.537415,884.494629 531.871643,884.579834 531.207275,884.621460 
	C521.750183,885.213745 521.742432,885.214172 521.956360,894.910156 
	C522.066467,899.901001 522.036133,904.903137 522.379761,909.878784 
	C522.857605,916.799194 526.388611,919.187866 532.727356,916.730469 
	C534.973999,915.859497 536.075806,915.439209 537.240540,918.081116 
	C538.658203,921.296570 536.079651,921.457703 534.507690,922.102783 
	C530.533691,923.733398 526.431213,923.743408 522.004272,922.146118 
z"/>
<path fill="#0B0B0B" opacity="1.000000" stroke="none" 
	d="
M636.341797,855.599609 
	C639.397644,859.577454 642.154663,863.332336 645.081604,866.949707 
	C649.195312,872.033997 653.402466,871.868103 657.114685,866.370850 
	C658.316711,864.590820 658.785217,862.999756 661.492615,864.654297 
	C664.330811,866.388855 662.876648,867.972900 661.890259,869.574585 
	C656.091309,878.990906 646.698669,879.543091 639.963623,870.872070 
	C635.579529,865.227844 631.146179,859.612915 627.008240,853.790588 
	C625.150269,851.176270 623.720764,850.717834 621.347595,853.028015 
	C620.243835,854.102295 619.042053,855.973389 617.043091,853.433777 
	C615.085632,850.946899 616.398132,849.884949 618.271301,848.871704 
	C621.302368,847.232178 620.929382,845.584656 618.957336,843.194885 
	C617.889465,841.900879 615.449280,840.837158 616.699768,838.358459 
	C618.531555,834.727295 620.651550,834.442383 622.845032,838.048645 
	C625.340088,842.150635 627.641174,842.777588 631.023743,839.161743 
	C632.366028,837.726990 634.225830,836.790466 635.742065,835.500305 
	C637.102112,834.343140 637.972839,834.673279 638.899658,836.025574 
	C639.763489,837.286133 640.900818,838.338989 638.963379,839.693115 
	C636.786499,841.214478 634.848389,843.104370 632.587036,844.470886 
	C629.915771,846.084961 629.709229,847.543762 631.871948,849.785034 
	C633.475647,851.446960 634.716431,853.459167 636.341797,855.599609 
z"/>
<path fill="#0A0A0A" opacity="1.000000" stroke="none" 
	d="
M628.970459,604.901550 
	C631.087952,601.895325 632.987366,599.172485 634.968567,596.510498 
	C636.204712,594.849548 636.766724,592.291260 640.033569,594.646484 
	C643.052734,596.823059 641.674011,598.152832 640.264038,600.124268 
	C631.577393,612.270142 622.959961,624.465576 614.292908,636.625488 
	C612.051636,639.770081 610.493896,642.743469 615.247131,645.081116 
	C617.450439,646.164734 615.913025,647.479187 615.439575,648.762390 
	C614.679077,650.823608 613.308716,650.398804 611.829529,649.765320 
	C605.580017,647.089050 603.717102,640.871033 607.812195,634.885193 
	C614.650879,624.889038 621.780029,615.091614 628.970459,604.901550 
z"/>
<path fill="#0B0B0B" opacity="1.000000" stroke="none" 
	d="
M408.259827,851.620728 
	C414.261566,849.405579 419.178772,851.010498 423.411621,855.260925 
	C424.516388,856.370178 426.128326,857.722534 423.790283,859.249023 
	C422.324402,860.206055 421.411224,862.326965 418.979889,859.863464 
	C412.935303,853.738953 407.776245,853.940979 402.037384,860.288025 
	C396.784790,866.097229 392.950378,872.966797 388.545898,879.403259 
	C387.061615,881.572388 386.186401,882.182556 383.627350,880.543396 
	C380.571167,878.585876 382.188202,877.205872 383.368561,875.469482 
	C389.904022,865.855774 396.420013,856.228699 402.996033,846.642822 
	C404.163666,844.940674 404.729187,842.404846 408.068512,844.672424 
	C411.539459,847.029419 408.854309,848.390808 407.934296,850.532166 
	C407.865967,850.873413 407.619446,851.289368 407.619446,851.289368 
	C407.619446,851.289368 408.067169,851.473206 408.259827,851.620728 
z"/>
<path fill="#0B0B0B" opacity="1.000000" stroke="none" 
	d="
M705.150879,773.827148 
	C707.516479,777.280640 707.445068,780.809265 706.787537,784.249451 
	C706.477295,785.872620 706.567749,788.765686 703.353516,787.842468 
	C701.020142,787.172241 699.421570,786.584351 700.587646,783.075012 
	C702.783508,776.466553 699.888123,771.826599 693.033264,769.841064 
	C684.969421,767.505432 676.544189,768.005737 668.289551,767.189819 
	C665.512146,766.915222 664.749023,766.293884 664.829346,763.447571 
	C664.920471,760.217041 666.609558,760.630676 668.699646,760.791443 
	C680.141479,761.671326 691.596497,762.394958 703.024902,763.418823 
	C704.950500,763.591248 708.282776,762.218384 708.079773,766.748474 
	C707.876953,771.274658 705.026672,769.452087 702.857910,769.565063 
	C702.546753,769.581238 702.243652,769.752136 700.261841,770.393250 
	C702.269348,771.725708 703.603394,772.611145 705.150879,773.827148 
z"/>
<path fill="#0B0B0B" opacity="1.000000" stroke="none" 
	d="
M628.256470,889.400757 
	C630.777222,892.722107 627.826172,893.092590 626.231140,894.250427 
	C623.890808,895.949158 623.483154,893.899231 622.723267,892.555298 
	C616.698364,881.898804 610.772583,871.184875 604.609192,860.609314 
	C603.219727,858.225220 603.834290,857.360352 605.897705,856.040771 
	C608.326599,854.487427 609.182495,855.443054 610.331604,857.519043 
	C616.179138,868.084229 622.158936,878.576233 628.256470,889.400757 
z"/>
<path fill="#0B0B0B" opacity="1.000000" stroke="none" 
	d="
M545.188965,885.048096 
	C544.914612,883.311829 544.900574,881.930359 544.469543,880.694397 
	C543.588562,878.168518 544.829712,877.443115 547.000305,877.126282 
	C548.966919,876.839172 550.489624,876.669922 550.927734,879.386230 
	C552.888123,891.539490 554.938721,903.679810 557.142212,915.791016 
	C557.603455,918.326050 557.071411,919.366211 554.511658,919.846619 
	C551.879089,920.340759 551.184937,919.511108 550.774658,916.928894 
	C549.104126,906.415527 547.125549,895.951111 545.188965,885.048096 
z"/>
<path fill="#0B0B0B" opacity="1.000000" stroke="none" 
	d="
M602.931763,841.952271 
	C604.988953,845.196472 604.495056,847.617737 601.263123,849.143616 
	C598.661255,850.372009 596.751770,849.205200 595.481506,846.903137 
	C594.594543,845.295715 594.793518,843.651001 596.082336,842.305115 
	C598.083923,840.214905 600.313782,839.872986 602.931763,841.952271 
z"/>
<path fill="#0B0B0B" opacity="1.000000" stroke="none" 
	d="
M541.184814,862.086670 
	C543.275574,860.007263 545.336182,859.298645 547.644104,860.933228 
	C549.289978,862.098938 549.921265,863.761902 549.373901,865.716248 
	C548.616821,868.419250 546.560852,869.534302 544.029236,868.931763 
	C540.553650,868.104614 539.845642,865.582153 541.184814,862.086670 
z"/>
<path fill="#FCFCFC" opacity="1.000000" stroke="none" 
	d="
M435.678284,589.579468 
	C438.115479,588.441956 440.230408,587.486877 442.361450,586.569153 
	C444.817108,585.511658 447.375275,584.874146 450.052582,584.680237 
	C458.912994,584.038513 465.412476,589.616699 470.304047,602.099609 
	C474.276764,612.237671 472.860382,619.461304 465.808105,624.977783 
	C461.441895,628.393127 456.190369,630.148682 451.356995,632.689087 
	C449.647583,633.587524 449.000122,632.646851 448.380737,631.328552 
	C442.602905,619.031189 436.737244,606.774292 431.069336,594.426514 
	C429.033539,589.991516 434.172607,591.570251 435.678284,589.579468 
z"/>
<path fill="#FCFCFC" opacity="1.000000" stroke="none" 
	d="
M679.340210,701.521118 
	C676.733582,702.694397 674.497864,703.860840 672.125122,704.567505 
	C664.977112,706.696533 659.667175,704.465698 656.646667,698.277832 
	C653.613037,692.063049 655.031921,686.457764 660.973511,682.120300 
	C662.967529,680.664673 665.203369,679.454895 667.478943,678.485291 
	C676.148376,674.791199 682.890320,676.670227 686.375854,683.586487 
	C689.967468,690.713196 687.976624,695.956238 679.340210,701.521118 
z"/>
<path fill="#FBFBFB" opacity="1.000000" stroke="none" 
	d="
M385.099304,651.437500 
	C389.235962,639.851990 397.133026,637.283691 406.845459,643.969360 
	C409.459137,645.768433 411.816986,647.854309 413.788177,650.333130 
	C417.990112,655.617065 418.075775,660.622131 414.139526,665.734131 
	C410.154602,670.909363 404.501648,672.663391 398.730438,669.649719 
	C391.553986,665.902344 384.958740,661.335571 385.099304,651.437500 
z"/>
<path fill="#F7F7F7" opacity="1.000000" stroke="none" 
	d="
M374.868622,689.771545 
	C372.907776,694.410889 371.063660,698.675903 369.249298,702.953552 
	C368.795837,704.022705 368.713867,705.084412 366.897644,704.340759 
	C362.031921,702.348694 358.975037,696.054016 360.488770,690.580200 
	C362.360474,683.811646 366.697968,680.755371 372.759155,681.576843 
	C376.480957,682.081177 378.449066,683.180786 375.989441,687.122253 
	C375.555389,687.817871 375.322266,688.638794 374.868622,689.771545 
z"/>
<path fill="#F7F7F7" opacity="1.000000" stroke="none" 
	d="
M493.378723,591.683105 
	C495.570129,584.479492 499.267426,581.683105 506.107178,581.729675 
	C511.538300,581.766724 514.539246,584.479187 516.344482,590.087280 
	C517.276306,592.981995 516.199036,593.545227 513.776062,593.818115 
	C508.171448,594.449219 502.557495,595.057190 496.991699,595.950928 
	C493.545685,596.504395 492.418243,595.391907 493.378723,591.683105 
z"/>
<path fill="#F7F7F7" opacity="1.000000" stroke="none" 
	d="
M687.298462,726.575684 
	C686.081543,722.349487 687.760742,721.559326 691.206238,722.119324 
	C697.458923,723.135559 701.307617,727.369690 701.792786,734.098083 
	C702.178711,739.448914 699.161987,743.355164 693.629211,745.087219 
	C691.218872,745.841858 690.158020,745.749451 689.855896,742.764038 
	C689.321533,737.483887 688.237976,732.259277 687.298462,726.575684 
z"/>
<path fill="#F7F7F7" opacity="1.000000" stroke="none" 
	d="
M590.455139,594.955017 
	C601.526611,594.974426 607.210205,601.556335 604.082092,610.057068 
	C603.403564,611.901123 602.692688,612.447754 600.857788,611.618530 
	C594.382507,608.692017 587.872742,605.841858 581.265259,602.913696 
	C583.350159,598.961731 585.822998,596.008850 590.455139,594.955017 
z"/>
<path fill="#F7F7F7" opacity="1.000000" stroke="none" 
	d="
M448.402191,872.580200 
	C450.531891,874.389526 451.678406,876.325134 451.967407,878.750183 
	C452.784119,885.603577 450.769196,887.216064 444.606354,884.634827 
	C440.040436,882.722473 435.509247,880.717834 430.885101,878.957764 
	C428.418671,878.018921 428.567322,876.990295 429.880737,875.065735 
	C434.169647,868.780823 440.188385,867.814880 448.402191,872.580200 
z"/>
<path fill="#F7F7F7" opacity="1.000000" stroke="none" 
	d="
M470.774841,903.133423 
	C472.629700,900.561768 474.997040,899.978577 477.558594,899.879639 
	C480.045349,899.783447 482.534027,899.735291 485.021973,899.671082 
	C486.934296,899.621704 489.338287,897.808289 490.518646,899.091675 
	C491.971222,900.670959 490.366211,903.191467 489.943237,905.239685 
	C488.744690,911.044067 485.095581,914.631958 480.258301,915.164490 
	C471.929993,916.081360 468.207153,911.601318 470.774841,903.133423 
z"/>
<path fill="#FFFFFF" opacity="1.000000" stroke="none" 
	d="
M679.193848,838.873413 
	C680.035522,839.243042 680.427979,839.858521 678.833008,839.952393 
	C678.699280,839.601562 678.826965,839.384033 679.193848,838.873413 
z"/>
<path fill="#FBFBFB" opacity="1.000000" stroke="none" 
	d="
M645.388855,634.809448 
	C652.202698,633.999756 656.254333,637.422852 659.006104,642.600098 
	C661.693665,647.656860 660.053467,652.264404 656.708069,656.445923 
	C654.505737,659.198669 651.900635,661.529846 648.932373,663.420044 
	C642.705322,667.385498 637.089417,666.789001 632.284363,661.724426 
	C627.242126,656.409607 626.880310,650.637451 631.518311,644.663574 
	C635.027466,640.143677 639.171753,636.329163 645.388855,634.809448 
z"/>
<path fill="#FFFFFF" opacity="1.000000" stroke="none" 
	d="
M408.320496,851.534912 
	C408.065033,851.824341 407.677521,851.880432 407.290039,851.936462 
	C407.307190,851.657104 407.324310,851.377808 407.603699,850.985962 
	C407.973480,851.016174 408.080963,851.158875 408.320496,851.534912 
z"/>
</svg>