<?xml version="1.0" encoding="UTF-8"?>
<svg xmlns="http://www.w3.org/2000/svg" xmlns:xlink="http://www.w3.org/1999/xlink" width="200px" height="200px" viewBox="0 0 200 200" version="1.1">
<g id="surface1">
<path style=" stroke:none;fill-rule:nonzero;fill:rgb(0.392157%,0.392157%,0.392157%);fill-opacity:1;" d="M 23.199219 61.601562 C 25.019531 61.792969 26.5625 62.578125 28.1875 63.367188 C 28.472656 63.503906 28.761719 63.640625 29.054688 63.78125 C 29.972656 64.21875 30.886719 64.660156 31.800781 65.101562 C 32.996094 65.675781 34.191406 66.25 35.386719 66.820312 C 35.675781 66.957031 35.96875 67.097656 36.265625 67.238281 C 38.488281 68.289062 40.734375 69.148438 43.070312 69.921875 C 44 70.398438 44 70.398438 44.359375 71.164062 C 44.421875 72.460938 44 73.574219 43.601562 74.800781 C 43.078125 74.847656 42.554688 74.898438 42.015625 74.945312 C 37.339844 75.382812 32.667969 75.863281 28 76.398438 C 28.378906 76.589844 28.757812 76.777344 29.148438 76.972656 C 33.296875 79.050781 37.449219 81.125 41.601562 83.199219 C 41.542969 83.859375 41.484375 84.515625 41.425781 85.175781 C 41.390625 85.542969 41.359375 85.910156 41.328125 86.285156 C 41.199219 87.199219 41.199219 87.199219 40.800781 87.601562 C 40.074219 87.664062 39.34375 87.699219 38.617188 87.726562 C 38.152344 87.742188 37.6875 87.761719 37.207031 87.777344 C 36.703125 87.792969 36.195312 87.808594 35.675781 87.824219 C 35.160156 87.84375 34.648438 87.859375 34.117188 87.875 C 28.746094 88.042969 23.375 88.039062 18 88 C 18.351562 85.25 18.351562 85.25 18.800781 84.800781 C 20.039062 84.707031 21.273438 84.636719 22.515625 84.585938 C 22.886719 84.570312 23.257812 84.550781 23.640625 84.535156 C 24.835938 84.480469 26.03125 84.425781 27.226562 84.375 C 28.03125 84.339844 28.839844 84.300781 29.648438 84.265625 C 31.632812 84.175781 33.617188 84.085938 35.601562 84 C 31.980469 82.042969 28.347656 80.152344 24.625 78.398438 C 24.214844 78.203125 23.800781 78.007812 23.378906 77.808594 C 22.386719 77.335938 21.394531 76.867188 20.398438 76.398438 C 20.351562 74.101562 20.351562 74.101562 20.800781 73.199219 C 21.875 73.046875 22.914062 72.945312 23.992188 72.875 C 24.3125 72.847656 24.636719 72.824219 24.96875 72.800781 C 26.003906 72.722656 27.039062 72.648438 28.074219 72.574219 C 29.101562 72.5 30.132812 72.425781 31.160156 72.347656 C 31.800781 72.300781 32.441406 72.253906 33.082031 72.207031 C 34.742188 72.085938 36.359375 71.90625 38 71.601562 C 37.695312 71.464844 37.390625 71.332031 37.078125 71.191406 C 35.929688 70.679688 34.777344 70.167969 33.628906 69.660156 C 32.894531 69.332031 32.160156 69.007812 31.425781 68.683594 C 28.542969 67.402344 25.667969 66.109375 22.800781 64.800781 C 22.78125 63.867188 22.785156 62.933594 22.800781 62 C 22.933594 61.867188 23.0625 61.734375 23.199219 61.601562 Z M 23.199219 61.601562 "/>
<path style=" stroke:none;fill-rule:nonzero;fill:rgb(0.392157%,0.392157%,0.392157%);fill-opacity:1;" d="M 78.550781 14.398438 C 81.773438 16.820312 83.992188 20.023438 84.800781 24 C 85.125 27.414062 84.71875 29.703125 82.574219 32.382812 C 79.683594 35.347656 75.445312 37 71.601562 38.398438 C 71.335938 38.398438 71.070312 38.398438 70.800781 38.398438 C 69.660156 35.796875 68.527344 33.195312 67.402344 30.589844 C 66.992188 29.648438 66.585938 28.707031 66.179688 27.769531 C 65.566406 26.355469 64.957031 24.941406 64.351562 23.523438 C 64.15625 23.078125 63.960938 22.632812 63.761719 22.171875 C 63.582031 21.753906 63.40625 21.339844 63.222656 20.90625 C 63.0625 20.539062 62.902344 20.171875 62.742188 19.789062 C 62.398438 18.800781 62.398438 18.800781 62.398438 17.199219 C 63.632812 16.671875 64.867188 16.148438 66.101562 15.625 C 66.449219 15.476562 66.796875 15.328125 67.15625 15.171875 C 67.496094 15.03125 67.832031 14.886719 68.179688 14.738281 C 68.492188 14.605469 68.800781 14.476562 69.121094 14.339844 C 72 13.230469 75.804688 12.796875 78.550781 14.398438 Z M 70.351562 17.148438 C 69.945312 17.289062 69.539062 17.429688 69.121094 17.570312 C 68.175781 17.933594 67.300781 18.339844 66.398438 18.800781 C 67.386719 21.914062 68.585938 24.925781 69.824219 27.949219 C 70.023438 28.4375 70.21875 28.925781 70.425781 29.429688 C 70.613281 29.898438 70.804688 30.367188 71 30.847656 C 71.175781 31.269531 71.347656 31.695312 71.523438 32.128906 C 71.988281 33.257812 71.988281 33.257812 72.800781 34.398438 C 75.976562 33.542969 79.457031 32.164062 81.199219 29.199219 C 81.78125 25.683594 80.976562 22.257812 79.132812 19.234375 C 78.050781 17.808594 76.867188 17.011719 75.199219 16.398438 C 73.410156 16.28125 72.039062 16.558594 70.351562 17.148438 Z M 70.351562 17.148438 "/>
<path style=" stroke:none;fill-rule:nonzero;fill:rgb(0.392157%,0.392157%,0.392157%);fill-opacity:1;" d="M 55.242188 33.980469 C 58.320312 35.769531 60.570312 38.011719 61.761719 41.40625 C 62.257812 43.476562 61.929688 44.972656 60.925781 46.875 C 59.640625 48.4375 58.40625 49.695312 56.476562 50.425781 C 56.1875 50.546875 55.898438 50.671875 55.601562 50.800781 C 55.300781 51.570312 55.300781 51.570312 55.199219 52.398438 C 54.9375 52.796875 54.671875 53.191406 54.398438 53.601562 C 52.578125 53.253906 51.644531 52.191406 50.394531 50.898438 C 50.050781 50.546875 50.050781 50.546875 49.695312 50.191406 C 48.960938 49.449219 48.230469 48.699219 47.5 47.949219 C 46.542969 46.972656 45.582031 45.996094 44.617188 45.023438 C 44.386719 44.789062 44.160156 44.554688 43.921875 44.3125 C 42.476562 42.855469 40.996094 41.453125 39.421875 40.132812 C 38.496094 39.339844 37.648438 38.476562 36.800781 37.601562 C 37.355469 36.207031 37.851562 35.808594 39.199219 35.199219 C 39.605469 35.613281 39.605469 35.613281 40.019531 36.03125 C 40.375 36.394531 40.730469 36.753906 41.101562 37.125 C 41.453125 37.480469 41.804688 37.839844 42.167969 38.207031 C 43.015625 39.019531 43.84375 39.726562 44.800781 40.398438 C 44.867188 40.164062 44.9375 39.925781 45.007812 39.683594 C 45.808594 37.066406 46.640625 35.273438 49.074219 33.851562 C 51.214844 32.875 53.113281 33.019531 55.242188 33.980469 Z M 48.800781 37.601562 C 47.605469 38.949219 47.382812 40.210938 47.460938 42.007812 C 47.894531 44.503906 50.082031 46.152344 52 47.601562 C 53.28125 48.242188 54.179688 48.164062 55.601562 48 C 56.910156 47.160156 58.097656 46.203125 58.800781 44.800781 C 58.957031 43.1875 58.917969 42.230469 58.175781 40.773438 C 55.597656 37.671875 52.816406 35.203125 48.800781 37.601562 Z M 48.800781 37.601562 "/>
<path style=" stroke:none;fill-rule:nonzero;fill:rgb(0.392157%,0.392157%,0.392157%);fill-opacity:1;" d="M 165.199219 44 C 166 45.199219 166 45.199219 165.875 46.25 C 165.601562 47.199219 165.601562 47.199219 165.199219 47.601562 C 165.414062 47.691406 165.625 47.785156 165.84375 47.878906 C 167.675781 48.726562 168.882812 49.457031 170 51.199219 C 170.761719 53.488281 170.808594 55.933594 169.773438 58.125 C 167.09375 61.078125 164.171875 63.347656 160.066406 63.640625 C 158.089844 63.550781 156.761719 62.710938 155.300781 61.449219 C 153.855469 59.765625 153.132812 58.777344 153.171875 56.53125 C 153.175781 56.207031 153.179688 55.882812 153.183594 55.546875 C 153.1875 55.300781 153.195312 55.054688 153.199219 54.800781 C 153.011719 54.921875 152.824219 55.042969 152.632812 55.167969 C 151.78125 55.714844 150.929688 56.257812 150.074219 56.800781 C 149.632812 57.085938 149.632812 57.085938 149.179688 57.378906 C 148.894531 57.558594 148.609375 57.738281 148.316406 57.925781 C 147.925781 58.175781 147.925781 58.175781 147.523438 58.433594 C 146.800781 58.800781 146.800781 58.800781 145.601562 58.800781 C 145.203125 58.007812 144.808594 57.214844 144.398438 56.398438 C 147.214844 54.296875 150.1875 52.503906 153.207031 50.714844 C 156.046875 49.027344 158.835938 47.269531 161.597656 45.464844 C 161.894531 45.269531 162.195312 45.078125 162.5 44.882812 C 162.761719 44.710938 163.023438 44.539062 163.292969 44.363281 C 164 44 164 44 165.199219 44 Z M 157.25 52.199219 C 156.027344 53.640625 155.589844 54.226562 155.625 56.148438 C 156.082031 57.921875 156.648438 58.765625 158 60 C 159.945312 60.625 161.371094 60.410156 163.203125 59.632812 C 165.117188 58.589844 166.792969 57.269531 167.601562 55.199219 C 167.566406 53.183594 167.523438 52.390625 166.226562 50.824219 C 163.128906 48.332031 159.921875 49.875 157.25 52.199219 Z M 157.25 52.199219 "/>
<path style=" stroke:none;fill-rule:nonzero;fill:rgb(0.392157%,0.392157%,0.392157%);fill-opacity:1;" d="M 52.398438 124.398438 C 54.875 126.308594 56.535156 128.515625 57.199219 131.601562 C 57.230469 133.164062 57.105469 134.59375 56.398438 136 C 55.476562 135.867188 54.550781 135.734375 53.601562 135.601562 C 53.199219 134.398438 53.199219 134.398438 53.476562 133.125 C 53.636719 131.136719 53.207031 129.976562 52 128.398438 C 50.601562 127.144531 49.296875 126.492188 47.449219 126.148438 C 43.871094 126.765625 40.828125 128.785156 38.648438 131.648438 C 37.667969 133.535156 37.6875 135.535156 38 137.601562 C 38.785156 139.171875 39.644531 140.355469 41.199219 141.199219 C 43.175781 141.648438 44.816406 141.566406 46.800781 141.199219 C 46.996094 142.585938 46.996094 142.585938 47.199219 144 C 45.28125 145.128906 43.363281 145 41.199219 144.800781 C 39.289062 144.128906 38.148438 143.09375 36.800781 141.601562 C 36.519531 141.304688 36.238281 141.007812 35.949219 140.699219 C 34.371094 138.386719 33.71875 136.058594 34.171875 133.277344 C 35.339844 128.789062 38.5625 125.9375 42.398438 123.601562 C 45.703125 122.015625 49.363281 122.460938 52.398438 124.398438 Z M 52.398438 124.398438 "/>
<path style=" stroke:none;fill-rule:nonzero;fill:rgb(0.392157%,0.392157%,0.392157%);fill-opacity:1;" d="M 74.753906 147.070312 C 76.730469 148.308594 77.78125 149.667969 78.449219 151.898438 C 78.570312 154.011719 77.859375 156.191406 76.800781 158 C 75.769531 158.449219 75.300781 158.433594 74.222656 158.078125 C 73.691406 157.824219 73.691406 157.824219 73.148438 157.5625 C 72.757812 157.382812 72.371094 157.199219 71.96875 157.011719 C 71.566406 156.820312 71.164062 156.625 70.75 156.425781 C 69.949219 156.046875 69.148438 155.667969 68.347656 155.289062 C 67.992188 155.117188 67.636719 154.949219 67.273438 154.773438 C 66.4375 154.347656 66.4375 154.347656 65.601562 154.398438 C 65.589844 155.042969 65.582031 155.683594 65.574219 156.324219 C 65.570312 156.683594 65.566406 157.039062 65.5625 157.40625 C 65.554688 158.453125 65.554688 158.453125 66 159.601562 C 67.976562 160.8125 70.714844 160.683594 72.921875 160.195312 C 73.257812 160.097656 73.257812 160.097656 73.601562 160 C 74.398438 161.199219 74.398438 161.199219 74.398438 162 C 73.761719 163.273438 72.910156 163.515625 71.601562 164 C 68.894531 164.355469 66.664062 163.414062 64.464844 161.890625 C 62.847656 160.585938 61.925781 159.46875 61.648438 157.398438 C 61.378906 153.996094 62.789062 150.871094 64.921875 148.265625 C 67.796875 145.449219 71.269531 145.351562 74.753906 147.070312 Z M 67.601562 150 C 67.316406 150.523438 67.046875 151.058594 66.800781 151.601562 C 67.980469 152.136719 69.164062 152.667969 70.351562 153.199219 C 70.6875 153.351562 71.023438 153.503906 71.371094 153.664062 C 71.691406 153.808594 72.015625 153.953125 72.347656 154.101562 C 72.644531 154.234375 72.941406 154.367188 73.25 154.507812 C 73.988281 154.847656 73.988281 154.847656 74.800781 154.800781 C 75.121094 153.320312 75.328125 152.332031 74.773438 150.898438 C 73.59375 149.53125 72.359375 148.910156 70.574219 148.648438 C 69.332031 148.839844 68.601562 149.242188 67.601562 150 Z M 67.601562 150 "/>
<path style=" stroke:none;fill-rule:nonzero;fill:rgb(0.392157%,0.392157%,0.392157%);fill-opacity:1;" d="M 174 63.875 C 176.140625 65.523438 177.421875 67.355469 178 70 C 178.078125 71.816406 177.757812 73.238281 177.023438 74.898438 C 175.601562 76.429688 173.96875 77.316406 172 78 C 171.332031 78.015625 170.667969 78.015625 170 78 C 169.464844 76.425781 168.929688 74.851562 168.398438 73.273438 C 168.246094 72.828125 168.09375 72.378906 167.9375 71.917969 C 167.792969 71.488281 167.648438 71.058594 167.5 70.617188 C 167.367188 70.222656 167.230469 69.824219 167.09375 69.417969 C 166.800781 68.398438 166.800781 68.398438 166.800781 67.199219 C 166.355469 67.4375 165.910156 67.679688 165.449219 67.925781 C 165.199219 68.058594 164.949219 68.195312 164.691406 68.332031 C 163.878906 68.820312 163.878906 68.820312 163.199219 70 C 163.003906 72.097656 163.3125 73.402344 164.398438 75.199219 C 165.289062 76.089844 166.035156 76.371094 167.199219 76.800781 C 167.066406 77.59375 166.9375 78.382812 166.800781 79.199219 C 165.367188 79.335938 164.496094 79.242188 163.175781 78.648438 C 161.226562 76.90625 160.195312 74.953125 159.820312 72.355469 C 159.730469 69.917969 159.878906 68.257812 161.601562 66.398438 C 164.628906 63.371094 170.042969 61.796875 174 63.875 Z M 169.199219 66.398438 C 169.523438 67.582031 169.847656 68.765625 170.175781 69.949219 C 170.265625 70.285156 170.359375 70.625 170.453125 70.96875 C 170.585938 71.453125 170.585938 71.453125 170.722656 71.945312 C 170.847656 72.394531 170.847656 72.394531 170.972656 72.847656 C 171.183594 73.625 171.183594 73.625 171.601562 74.398438 C 173.121094 74.183594 173.828125 73.570312 174.800781 72.398438 C 175.378906 70.8125 175.003906 69.84375 174.375 68.335938 C 173.847656 67.300781 173.476562 66.863281 172.398438 66.398438 C 171.332031 66.347656 170.269531 66.382812 169.199219 66.398438 Z M 169.199219 66.398438 "/>
<path style=" stroke:none;fill-rule:nonzero;fill:rgb(0.392157%,0.392157%,0.392157%);fill-opacity:1;" d="M 43.570312 48.851562 C 44.542969 49.332031 45.476562 49.839844 46.398438 50.398438 C 45.789062 52.578125 44.757812 54.355469 43.601562 56.273438 C 43.328125 56.730469 43.328125 56.730469 43.054688 57.195312 C 42.324219 58.414062 41.589844 59.617188 40.800781 60.800781 C 43.421875 61.257812 43.421875 61.257812 45.976562 60.75 C 47.40625 59.445312 47.960938 58.53125 48.101562 56.574219 C 48.023438 55.511719 47.921875 54.609375 47.601562 53.601562 C 48.800781 52.800781 48.800781 52.800781 49.625 52.824219 C 50.398438 53.199219 50.398438 53.199219 50.898438 54.050781 C 51.574219 56.636719 51.238281 58.867188 50 61.199219 C 48.191406 63.285156 46.574219 64.679688 43.773438 64.925781 C 40.304688 64.855469 37.59375 63.171875 35.140625 60.832031 C 33.761719 59.28125 33.3125 57.941406 33 55.875 C 33.351562 53.296875 34.433594 50.863281 36.449219 49.148438 C 38.667969 47.804688 41.210938 47.941406 43.570312 48.851562 Z M 37.449219 52.023438 C 36.699219 53.378906 36.242188 54.464844 36 56 C 36.46875 57.375 36.757812 58.15625 38.046875 58.867188 C 38.417969 59.03125 38.417969 59.03125 38.800781 59.199219 C 39.402344 58.085938 40 56.96875 40.601562 55.851562 C 40.773438 55.53125 40.945312 55.214844 41.121094 54.886719 C 41.28125 54.582031 41.445312 54.277344 41.613281 53.964844 C 41.839844 53.542969 41.839844 53.542969 42.070312 53.113281 C 42.457031 52.410156 42.457031 52.410156 42.398438 51.601562 C 40.640625 50.722656 38.894531 50.769531 37.449219 52.023438 Z M 37.449219 52.023438 "/>
<path style=" stroke:none;fill-rule:nonzero;fill:rgb(0.392157%,0.392157%,0.392157%);fill-opacity:1;" d="M 132.574219 18.800781 C 134.214844 19.722656 135.089844 20.632812 135.777344 22.386719 C 136.457031 24.871094 135.859375 26.617188 134.828125 28.871094 C 134.398438 29.601562 134.398438 29.601562 133.601562 30 C 132.554688 29.679688 132.554688 29.679688 131.246094 29.164062 C 130.546875 28.890625 130.546875 28.890625 129.832031 28.613281 C 129.34375 28.417969 128.855469 28.226562 128.351562 28.023438 C 127.851562 27.832031 127.355469 27.636719 126.859375 27.441406 C 125.636719 26.964844 124.417969 26.484375 123.199219 26 C 123.183594 26.574219 123.167969 27.152344 123.15625 27.726562 C 123.148438 28.046875 123.140625 28.367188 123.132812 28.699219 C 123.234375 30.078125 123.785156 30.695312 124.800781 31.601562 C 126.277344 32.414062 127.527344 32.546875 129.199219 32.398438 C 129.597656 32.136719 129.992188 31.871094 130.398438 31.601562 C 131.273438 31.75 131.273438 31.75 132 32 C 132.132812 32.660156 132.265625 33.320312 132.398438 34 C 130.652344 35.46875 129.351562 35.878906 127.066406 35.78125 C 124.707031 35.378906 122.742188 34.289062 121 32.675781 C 119.476562 29.945312 119.472656 27.773438 120.070312 24.761719 C 120.871094 21.941406 122.449219 20.085938 124.800781 18.398438 C 127.414062 17.527344 130.058594 17.6875 132.574219 18.800781 Z M 124.398438 22.800781 C 125.496094 24.1875 127.027344 24.664062 128.625 25.273438 C 128.898438 25.382812 129.171875 25.492188 129.457031 25.605469 C 130.886719 26.199219 130.886719 26.199219 132.398438 26.398438 C 132.941406 24.03125 132.941406 24.03125 132.050781 21.824219 C 130.894531 20.660156 129.734375 20.339844 128.117188 20.246094 C 126.476562 20.523438 125.480469 21.601562 124.398438 22.800781 Z M 124.398438 22.800781 "/>
<path style=" stroke:none;fill-rule:nonzero;fill:rgb(0.392157%,0.392157%,0.392157%);fill-opacity:1;" d="M 90.523438 151.476562 C 91.671875 151.984375 92.355469 152.355469 93.25 153.25 C 94.21875 156.429688 93.441406 159.660156 92.828125 162.84375 C 92.566406 164.199219 92.398438 165.410156 92.398438 166.800781 C 92.929688 166.933594 93.457031 167.0625 94 167.199219 C 94 167.992188 94 168.785156 94 169.601562 C 91.09375 169.847656 91.09375 169.847656 89.601562 168.601562 C 89.335938 168.269531 89.070312 167.941406 88.800781 167.601562 C 88.402344 167.804688 88.007812 168.011719 87.601562 168.226562 C 85.832031 168.980469 84.664062 168.820312 82.800781 168.398438 C 81.53125 167.777344 80.507812 167.089844 79.601562 166 C 78.96875 164.105469 78.988281 162.578125 79.675781 160.699219 C 80.59375 159.304688 81.507812 158.675781 83.097656 158.183594 C 84.726562 157.851562 86.386719 157.816406 88.039062 157.710938 C 89.175781 157.671875 89.175781 157.671875 90 157.199219 C 90 156.40625 90 155.617188 90 154.800781 C 88.097656 154.011719 86.804688 153.917969 84.800781 154.398438 C 84.257812 154.789062 83.722656 155.1875 83.199219 155.601562 C 82.804688 155.46875 82.40625 155.335938 82 155.199219 C 81.523438 153.976562 81.523438 153.976562 81.199219 152.800781 C 84.628906 150.832031 86.757812 150.144531 90.523438 151.476562 Z M 82.398438 162 C 82.179688 163.917969 82.179688 163.917969 83 165.574219 C 84.414062 166.175781 85.707031 166.316406 87.199219 166 C 88.679688 164.875 89.496094 163.789062 90 162 C 90 161.472656 90 160.945312 90 160.398438 C 89.175781 160.367188 88.351562 160.34375 87.523438 160.324219 C 87.066406 160.3125 86.605469 160.296875 86.132812 160.28125 C 84.566406 160.421875 83.519531 160.882812 82.398438 162 Z M 82.398438 162 "/>
<path style=" stroke:none;fill-rule:nonzero;fill:rgb(0.392157%,0.392157%,0.392157%);fill-opacity:1;" d="M 98.75 13.800781 C 100.3125 14.851562 101.050781 16.226562 101.601562 18 C 101.84375 19.332031 102.011719 20.644531 102 22 C 101.265625 22.734375 100.101562 22.597656 99.109375 22.703125 C 98.355469 22.78125 98.355469 22.78125 97.582031 22.863281 C 97.046875 22.917969 96.511719 22.96875 95.976562 23.023438 C 95.4375 23.082031 94.898438 23.136719 94.363281 23.191406 C 93.042969 23.332031 91.722656 23.464844 90.398438 23.601562 C 90.644531 24.117188 90.894531 24.632812 91.144531 25.148438 C 91.285156 25.4375 91.421875 25.722656 91.566406 26.019531 C 92.214844 27.183594 92.734375 27.578125 94 28 C 95.980469 28.113281 97.21875 27.9375 98.726562 26.601562 C 99.015625 26.269531 99.300781 25.941406 99.601562 25.601562 C 100.820312 25.097656 101.105469 25.167969 102.398438 25.601562 C 102.226562 27.570312 101.363281 28.609375 100 30 C 98.398438 30.828125 97.011719 30.917969 95.226562 30.925781 C 94.75 30.933594 94.277344 30.9375 93.789062 30.945312 C 91.84375 30.742188 90.523438 30.109375 89.125 28.75 C 87.234375 25.75 86.84375 22.707031 87.199219 19.199219 C 87.683594 17.144531 88.777344 15.730469 90.398438 14.398438 C 92.980469 12.933594 96.003906 12.472656 98.75 13.800781 Z M 91.199219 17.199219 C 90.804688 18.386719 90.40625 19.574219 90 20.800781 C 94.355469 20.402344 94.355469 20.402344 98.800781 20 C 98.367188 17.839844 98.105469 17.300781 96.398438 16 C 94.355469 15.703125 92.859375 15.953125 91.199219 17.199219 Z M 91.199219 17.199219 "/>
<path style=" stroke:none;fill-rule:nonzero;fill:rgb(0.392157%,0.392157%,0.392157%);fill-opacity:1;" d="M 153.25 31.875 C 155.570312 33.144531 157.554688 35.066406 158.398438 37.601562 C 158.734375 40.777344 157.71875 43.117188 155.757812 45.621094 C 153.839844 47.671875 151.785156 49.03125 148.976562 49.375 C 146.082031 49.007812 143.976562 47.671875 142 45.601562 C 140.714844 43.816406 140.542969 42.097656 140.613281 39.949219 C 141.152344 36.648438 143.304688 34.476562 145.902344 32.550781 C 148.34375 31.054688 150.59375 30.640625 153.25 31.875 Z M 145.5 37.375 C 144.273438 38.886719 143.582031 40.003906 143.625 42 C 144.234375 43.949219 145.542969 44.894531 147.199219 46 C 149.050781 46.289062 150.144531 46.046875 151.648438 45 C 153.671875 43.328125 154.972656 41.570312 155.476562 38.976562 C 155.101562 37.117188 154.179688 36.066406 152.800781 34.800781 C 149.785156 33.292969 147.460938 35.199219 145.5 37.375 Z M 145.5 37.375 "/>
<path style=" stroke:none;fill-rule:nonzero;fill:rgb(0.392157%,0.392157%,0.392157%);fill-opacity:1;" d="M 156.398438 121.601562 C 156.796875 121.601562 157.191406 121.601562 157.601562 121.601562 C 157.703125 121.792969 157.808594 121.984375 157.914062 122.183594 C 160.433594 126.820312 163.027344 131.40625 165.726562 135.945312 C 169.175781 141.789062 169.175781 141.789062 168.800781 144.800781 C 168.035156 146.757812 166.933594 147.996094 165.199219 149.199219 C 164.226562 148.824219 163.710938 148.589844 163.175781 147.675781 C 163.214844 146.285156 164.238281 145.738281 165.199219 144.800781 C 165.699219 143.863281 165.699219 143.863281 165.601562 142.800781 C 165 141.320312 164.597656 140.339844 163.1875 139.535156 C 162.164062 139.140625 161.136719 138.8125 160.082031 138.5 C 159.511719 138.320312 159.511719 138.320312 158.929688 138.136719 C 157.722656 137.757812 156.511719 137.390625 155.300781 137.023438 C 154.476562 136.769531 153.65625 136.511719 152.835938 136.253906 C 150.828125 135.625 148.816406 135.007812 146.800781 134.398438 C 147.230469 133.234375 147.511719 132.488281 148.398438 131.601562 C 151.371094 132.078125 154.183594 133.082031 157.023438 134.050781 C 157.464844 134.199219 157.910156 134.347656 158.363281 134.5 C 159.441406 134.867188 160.523438 135.230469 161.601562 135.601562 C 161.210938 134.855469 160.816406 134.117188 160.425781 133.375 C 160.304688 133.144531 160.179688 132.914062 160.054688 132.679688 C 159.34375 131.351562 158.597656 130.054688 157.796875 128.773438 C 157.632812 128.507812 157.46875 128.242188 157.296875 127.964844 C 156.96875 127.445312 156.636719 126.925781 156.304688 126.410156 C 155.1875 124.625 155.1875 124.625 155.25 123.5 C 155.601562 122.800781 155.601562 122.800781 156.398438 121.601562 Z M 156.398438 121.601562 "/>
<path style=" stroke:none;fill-rule:nonzero;fill:rgb(0.392157%,0.392157%,0.392157%);fill-opacity:1;" d="M 104 12.800781 C 106.699219 12.75 106.699219 12.75 107.601562 13.199219 C 107.898438 14.105469 107.898438 14.105469 108.175781 15.300781 C 108.277344 15.734375 108.378906 16.167969 108.484375 16.613281 C 108.589844 17.070312 108.691406 17.527344 108.800781 18 C 108.902344 18.445312 109.007812 18.890625 109.117188 19.347656 C 109.695312 21.828125 110.253906 24.3125 110.800781 26.800781 C 110.933594 26.539062 111.070312 26.277344 111.207031 26.007812 C 111.828125 24.804688 112.453125 23.601562 113.074219 22.398438 C 113.394531 21.78125 113.394531 21.78125 113.71875 21.152344 C 114.921875 18.832031 116.179688 16.59375 117.601562 14.398438 C 118.523438 14.53125 119.449219 14.664062 120.398438 14.800781 C 120.160156 16.3125 119.722656 17.484375 119.007812 18.839844 C 118.808594 19.222656 118.609375 19.609375 118.402344 20.003906 C 117.53125 21.636719 116.660156 23.273438 115.78125 24.902344 C 115.296875 25.816406 114.835938 26.738281 114.386719 27.671875 C 112.878906 30.640625 112.878906 30.640625 111.460938 31.109375 C 110.476562 31.148438 109.734375 31.101562 108.800781 30.800781 C 107.929688 29.929688 107.824219 29.578125 107.542969 28.417969 C 107.460938 28.089844 107.382812 27.765625 107.300781 27.429688 C 107.214844 27.078125 107.132812 26.726562 107.046875 26.363281 C 106.960938 26 106.871094 25.640625 106.78125 25.269531 C 106.597656 24.503906 106.414062 23.742188 106.230469 22.976562 C 105.949219 21.804688 105.667969 20.632812 105.382812 19.460938 C 105.203125 18.71875 105.023438 17.980469 104.847656 17.238281 C 104.761719 16.886719 104.675781 16.535156 104.589844 16.171875 C 104.511719 15.84375 104.433594 15.519531 104.355469 15.183594 C 104.285156 14.894531 104.21875 14.609375 104.144531 14.3125 C 104 13.601562 104 13.601562 104 12.800781 Z M 104 12.800781 "/>
<path style=" stroke:none;fill-rule:nonzero;fill:rgb(0%,0%,0%);fill-opacity:1;" d="M 131.199219 145.199219 C 131.25 147.742188 131.285156 150.28125 131.308594 152.824219 C 131.320312 153.6875 131.332031 154.554688 131.351562 155.417969 C 131.375 156.660156 131.386719 157.902344 131.394531 159.144531 C 131.40625 159.53125 131.414062 159.921875 131.425781 160.320312 C 131.425781 161.320312 131.414062 162.222656 131.199219 163.199219 C 130.25 164.027344 130.25 164.027344 129.199219 164.398438 C 128.871094 164.535156 128.542969 164.667969 128.207031 164.804688 C 127.199219 164.800781 127.199219 164.800781 126.167969 163.945312 C 125.804688 163.535156 125.449219 163.121094 125.101562 162.699219 C 124.910156 162.480469 124.71875 162.261719 124.519531 162.035156 C 123.003906 160.285156 121.539062 158.484375 120.085938 156.671875 C 118.867188 155.195312 117.570312 153.796875 116.261719 152.398438 C 115.601562 151.601562 115.601562 151.601562 115.601562 150.800781 C 117.34375 149.976562 117.34375 149.976562 118.363281 150.066406 C 119.519531 150.527344 120.0625 151.210938 120.875 152.148438 C 121.1875 152.507812 121.5 152.867188 121.820312 153.234375 C 123.105469 154.761719 124.371094 156.304688 125.621094 157.859375 C 126.4375 158.875 126.4375 158.875 127.601562 160 C 127.863281 155.378906 128.128906 150.761719 128.398438 146 C 130.800781 145.199219 130.800781 145.199219 131.199219 145.199219 Z M 131.199219 145.199219 "/>
<path style=" stroke:none;fill-rule:nonzero;fill:rgb(0.392157%,0.392157%,0.392157%);fill-opacity:1;" d="M 146.550781 134.476562 C 146.765625 134.582031 146.980469 134.691406 147.199219 134.800781 C 147.332031 135.460938 147.464844 136.121094 147.601562 136.800781 C 146.542969 137.59375 145.488281 138.382812 144.398438 139.199219 C 145.179688 140.757812 146.105469 142.039062 147.175781 143.398438 C 147.527344 143.855469 147.882812 144.308594 148.234375 144.761719 C 148.714844 145.375 148.714844 145.375 149.199219 146 C 149.414062 146.3125 149.632812 146.625 149.851562 146.945312 C 150.390625 147.722656 150.390625 147.722656 151.574219 147.851562 C 152.921875 147.710938 152.921875 147.710938 153.75 146.398438 C 153.964844 146.003906 154.179688 145.609375 154.398438 145.199219 C 155.191406 145.464844 155.984375 145.726562 156.800781 146 C 156.71875 147.707031 156.523438 148.28125 155.273438 149.5 C 154.855469 149.796875 154.433594 150.09375 154 150.398438 C 153.753906 150.582031 153.503906 150.761719 153.25 150.949219 C 151.882812 151.351562 150.539062 151.234375 149.199219 150.800781 C 147.765625 149.792969 146.699219 148.679688 145.625 147.300781 C 145.21875 146.777344 145.21875 146.777344 144.800781 146.246094 C 143.722656 144.839844 142.652344 143.425781 141.601562 142 C 140.183594 142.558594 140.183594 142.558594 138.800781 143.199219 C 138.175781 142.476562 138.175781 142.476562 137.601562 141.601562 C 138 140.402344 138.300781 140.019531 139.199219 139.199219 C 138.671875 138.539062 138.144531 137.878906 137.601562 137.199219 C 138.019531 136.152344 138.257812 135.683594 139.25 135.101562 C 139.496094 135 139.746094 134.902344 140 134.800781 C 140.527344 135.460938 141.054688 136.121094 141.601562 136.800781 C 142.933594 136.644531 143.351562 136.269531 144.398438 135.351562 C 145.601562 134.398438 145.601562 134.398438 146.550781 134.476562 Z M 146.550781 134.476562 "/>
<path style=" stroke:none;fill-rule:nonzero;fill:rgb(0.392157%,0.392157%,0.392157%);fill-opacity:1;" d="M 102 148.398438 C 102.265625 149.589844 102.527344 150.777344 102.800781 152 C 104.382812 152 105.96875 152 107.601562 152 C 107.730469 152.925781 107.863281 153.847656 108 154.800781 C 106.152344 154.800781 104.304688 154.800781 102.398438 154.800781 C 102.523438 156.582031 102.648438 158.367188 102.773438 160.148438 C 102.808594 160.660156 102.84375 161.167969 102.878906 161.691406 C 102.914062 162.175781 102.949219 162.660156 102.984375 163.160156 C 103.015625 163.609375 103.046875 164.054688 103.082031 164.519531 C 103.136719 165.585938 103.136719 165.585938 103.601562 166.398438 C 105.832031 166.449219 105.832031 166.449219 108 166 C 108.800781 167.199219 108.800781 167.199219 108.726562 168.023438 C 108.398438 168.800781 108.398438 168.800781 107.199219 169.601562 C 105.085938 169.859375 103.089844 169.929688 101.148438 169 C 99.167969 166.359375 99.5 162.941406 99.550781 159.800781 C 99.554688 159.355469 99.558594 158.914062 99.5625 158.457031 C 99.570312 157.371094 99.582031 156.285156 99.601562 155.199219 C 98.542969 155.199219 97.488281 155.199219 96.398438 155.199219 C 96.398438 154.277344 96.398438 153.351562 96.398438 152.398438 C 97.324219 152.398438 98.246094 152.398438 99.199219 152.398438 C 99.199219 151.34375 99.199219 150.289062 99.199219 149.199219 C 101.101562 148.398438 101.101562 148.398438 102 148.398438 Z M 102 148.398438 "/>
<path style=" stroke:none;fill-rule:nonzero;fill:rgb(0.392157%,0.392157%,0.392157%);fill-opacity:1;" d="M 144.800781 18.398438 C 145.984375 18.644531 146.550781 18.902344 147.601562 19.601562 C 147.101562 21.269531 146.492188 22.605469 145.523438 24.050781 C 145.269531 24.429688 145.019531 24.808594 144.757812 25.199219 C 144.492188 25.59375 144.226562 25.992188 143.949219 26.398438 C 141.308594 30.386719 141.308594 30.386719 138.824219 34.476562 C 138.582031 34.894531 138.339844 35.3125 138.089844 35.742188 C 137.488281 36.847656 137.488281 36.847656 137.601562 38.398438 C 138.367188 39.109375 138.367188 39.109375 139.199219 39.601562 C 138.605469 40.589844 138.605469 40.589844 138 41.601562 C 136.257812 41.125 135.042969 40.722656 134 39.199219 C 133.769531 36.730469 134.167969 35.273438 135.550781 33.199219 C 135.710938 32.945312 135.871094 32.691406 136.039062 32.429688 C 136.378906 31.890625 136.722656 31.351562 137.070312 30.816406 C 137.769531 29.738281 138.445312 28.648438 139.121094 27.558594 C 139.621094 26.757812 140.121094 25.957031 140.625 25.160156 C 142.03125 22.914062 143.414062 20.65625 144.800781 18.398438 Z M 144.800781 18.398438 "/>
<path style=" stroke:none;fill-rule:nonzero;fill:rgb(0.392157%,0.392157%,0.392157%);fill-opacity:1;" d="M 179.601562 80.398438 C 179.796875 81.785156 179.796875 81.785156 180 83.199219 C 179.605469 83.464844 179.207031 83.726562 178.800781 84 C 178.988281 84.238281 179.179688 84.476562 179.375 84.726562 C 180.609375 86.453125 180.464844 87.960938 180.398438 90 C 180 90.398438 180 90.398438 178.773438 90.425781 C 178.386719 90.417969 178 90.410156 177.601562 90.398438 C 177.199219 89.199219 177.199219 89.199219 177.273438 88.050781 C 177.277344 86.777344 177.277344 86.777344 176.648438 85.675781 C 174.839844 84.167969 172.792969 84.324219 170.515625 84.46875 C 169.785156 84.539062 169.058594 84.617188 168.332031 84.695312 C 166.488281 84.863281 164.648438 84.832031 162.800781 84.800781 C 162.648438 83.871094 162.515625 82.9375 162.398438 82 C 163.183594 81.21875 164.628906 81.390625 165.703125 81.296875 C 165.996094 81.273438 166.289062 81.246094 166.589844 81.21875 C 167.214844 81.164062 167.839844 81.109375 168.464844 81.058594 C 169.410156 80.976562 170.359375 80.890625 171.304688 80.808594 C 171.910156 80.753906 172.519531 80.699219 173.125 80.648438 C 173.546875 80.609375 173.546875 80.609375 173.972656 80.574219 C 175.855469 80.414062 177.710938 80.378906 179.601562 80.398438 Z M 179.601562 80.398438 "/>
<path style=" stroke:none;fill-rule:nonzero;fill:rgb(0.392157%,0.392157%,0.392157%);fill-opacity:1;" d="M 57.199219 138 C 58.148438 138.101562 58.148438 138.101562 59.199219 138.398438 C 59.699219 139.199219 59.699219 139.199219 60 140 C 60.488281 140.5625 60.488281 140.5625 61.898438 140.699219 C 63.605469 141.113281 64.539062 141.761719 65.601562 143.199219 C 65.648438 144.074219 65.648438 144.074219 65.199219 144.800781 C 64.175781 145.300781 64.175781 145.300781 63.199219 145.601562 C 63.09375 145.34375 62.984375 145.089844 62.875 144.824219 C 62.445312 143.867188 62.445312 143.867188 61.199219 143.601562 C 59.53125 143.410156 58.667969 143.433594 57.226562 144.324219 C 55.472656 145.96875 54.175781 148.042969 52.800781 150 C 52.335938 150.628906 51.871094 151.253906 51.398438 151.875 C 51.207031 152.132812 51.011719 152.390625 50.8125 152.65625 C 50.675781 152.835938 50.539062 153.015625 50.398438 153.199219 C 49.609375 152.804688 48.816406 152.40625 48 152 C 48.230469 150.332031 49.199219 149.164062 50.175781 147.851562 C 50.535156 147.351562 50.898438 146.855469 51.261719 146.359375 C 51.449219 146.101562 51.636719 145.847656 51.828125 145.582031 C 52.761719 144.304688 53.679688 143.015625 54.601562 141.726562 C 54.851562 141.371094 54.851562 141.371094 55.109375 141.011719 C 55.820312 140.015625 56.519531 139.019531 57.199219 138 Z M 57.199219 138 "/>
<path style=" stroke:none;fill-rule:nonzero;fill:rgb(0.392157%,0.392157%,0.392157%);fill-opacity:1;" d="M 112.800781 150.800781 C 113.953125 151.953125 114.007812 153.304688 114.289062 154.859375 C 114.351562 155.183594 114.414062 155.507812 114.476562 155.839844 C 114.605469 156.523438 114.730469 157.210938 114.855469 157.894531 C 115.050781 158.945312 115.246094 159.992188 115.445312 161.039062 C 115.566406 161.703125 115.691406 162.367188 115.816406 163.035156 C 115.875 163.347656 115.933594 163.660156 115.992188 163.984375 C 116.242188 165.355469 116.398438 166.601562 116.398438 168 C 115.316406 168.542969 114.394531 168.425781 113.199219 168.398438 C 112.882812 166.824219 112.566406 165.25 112.25 163.675781 C 112.160156 163.234375 112.074219 162.792969 111.980469 162.339844 C 110.277344 153.851562 110.277344 153.851562 110.398438 151.601562 C 111.191406 151.335938 111.984375 151.070312 112.800781 150.800781 Z M 112.800781 150.800781 "/>
<path style=" stroke:none;fill-rule:nonzero;fill:rgb(0.392157%,0.392157%,0.392157%);fill-opacity:1;" d="M 135.574219 142.648438 C 136.679688 143.386719 137.078125 144.183594 137.710938 145.351562 C 138.070312 146.003906 138.070312 146.003906 138.433594 146.667969 C 138.800781 147.351562 138.800781 147.351562 139.175781 148.050781 C 139.660156 148.941406 140.148438 149.835938 140.636719 150.726562 C 140.867188 151.152344 141.097656 151.578125 141.335938 152.015625 C 141.921875 153.058594 142.542969 154.050781 143.203125 155.046875 C 143.464844 155.492188 143.730469 155.941406 144 156.398438 C 143.601562 157.601562 143.601562 157.601562 142.398438 158.398438 C 142.003906 158.398438 141.609375 158.398438 141.199219 158.398438 C 140.636719 157.675781 140.636719 157.675781 140.058594 156.65625 C 139.84375 156.285156 139.628906 155.917969 139.40625 155.535156 C 139.183594 155.136719 138.957031 154.734375 138.726562 154.324219 C 138.261719 153.515625 137.796875 152.707031 137.328125 151.898438 C 137.105469 151.503906 136.878906 151.109375 136.644531 150.703125 C 135.582031 148.878906 134.433594 147.113281 133.277344 145.34375 C 133.121094 145.035156 132.960938 144.722656 132.800781 144.398438 C 133.199219 143.199219 133.199219 143.199219 133.925781 142.675781 C 134.800781 142.398438 134.800781 142.398438 135.574219 142.648438 Z M 135.574219 142.648438 "/>
<path style=" stroke:none;fill-rule:nonzero;fill:rgb(0.784314%,0.784314%,0.784314%);fill-opacity:1;" d="M 110.976562 144.648438 C 112 144.800781 112 144.800781 112.773438 145.476562 C 113.199219 146.398438 113.199219 146.398438 112.898438 147.476562 C 112.398438 148.398438 112.398438 148.398438 112 148.800781 C 111.023438 148.875 111.023438 148.875 110 148.800781 C 109.199219 148 109.199219 148 109.101562 146.800781 C 109.226562 145.304688 109.46875 144.882812 110.976562 144.648438 Z M 110.976562 144.648438 "/>
<path style=" stroke:none;fill-rule:nonzero;fill:rgb(0.784314%,0.784314%,0.784314%);fill-opacity:1;" d="M 132.699219 137.199219 C 133.601562 138 133.601562 138 133.726562 139.273438 C 133.664062 139.832031 133.664062 139.832031 133.601562 140.398438 C 132.496094 140.953125 131.621094 140.875 130.398438 140.800781 C 130.136719 140.535156 129.871094 140.273438 129.601562 140 C 129.648438 138.800781 129.648438 138.800781 130 137.601562 C 131.039062 136.671875 131.394531 136.726562 132.699219 137.199219 Z M 132.699219 137.199219 "/>
</g>
</svg>
