<?xml version="1.0" encoding="UTF-8"?>
<svg version="1.1" xmlns="http://www.w3.org/2000/svg" width="500" height="500">
<path d="M0 0 C4.5493942 0.48546658 8.40760439 2.44783786 12.46875 4.421875 C13.18550903 4.7637384 13.90226807 5.10560181 14.64074707 5.45782471 C16.9297473 6.5499154 19.21521076 7.64912944 21.5 8.75 C24.48683791 10.18810714 27.47615482 11.62078589 30.46875 13.046875 C31.19312256 13.39383423 31.91749512 13.74079346 32.66381836 14.0982666 C38.22124159 16.72436732 43.83454242 18.87314719 49.67382812 20.80566406 C52 22 52 22 52.90039062 23.90527344 C53.05481609 27.15275009 52.00044174 29.93982526 51 33 C49.69289062 33.12117188 48.38578125 33.24234375 47.0390625 33.3671875 C35.34482706 34.46080591 23.66862868 35.66074347 12 37 C12.94617188 37.47308594 13.89234375 37.94617188 14.8671875 38.43359375 C25.24479167 43.62239583 35.62239583 48.81119792 46 54 C45.85957123 55.64630328 45.71250671 57.29204179 45.5625 58.9375 C45.48128906 59.85402344 45.40007812 60.77054688 45.31640625 61.71484375 C45 64 45 64 44 65 C42.18496029 65.15985427 40.36388468 65.25169355 38.54296875 65.31640625 C37.37983154 65.35838135 36.21669434 65.40035645 35.01831055 65.44360352 C33.75414307 65.48283936 32.48997559 65.5220752 31.1875 65.5625 C29.90206299 65.6049585 28.61662598 65.64741699 27.29223633 65.69116211 C13.86201242 66.11015224 0.43583378 66.10104468 -13 66 C-12.125 59.125 -12.125 59.125 -11 58 C-7.90074403 57.76798951 -4.81886341 57.59595228 -1.71484375 57.46484375 C-0.78402481 57.42186661 0.14679413 57.37888947 1.1058197 57.33460999 C4.09119735 57.1977981 7.07682229 57.06758289 10.0625 56.9375 C12.08139985 56.84613609 14.10028041 56.75434489 16.11914062 56.66210938 C21.07921651 56.43643982 26.03952394 56.21668767 31 56 C21.95481324 51.10508564 12.86920051 46.3847096 3.5625 42 C2.53318359 41.51144531 1.50386719 41.02289063 0.44335938 40.51953125 C-2.03626624 39.34315073 -4.51735013 38.1699807 -7 37 C-7.125 31.25 -7.125 31.25 -6 29 C-3.31729835 28.61774331 -0.71800298 28.36282286 1.98046875 28.18359375 C2.78607742 28.12220718 3.5916861 28.06082062 4.42170715 27.99757385 C7.00972897 27.80191837 9.59846351 27.61919098 12.1875 27.4375 C14.75845392 27.24992174 17.32917639 27.05964002 19.8997345 26.86671448 C21.50110107 26.74730277 23.1027314 26.6313623 24.70463562 26.51939392 C28.85541032 26.21794164 32.90166939 25.76190305 37 25 C36.23969482 24.66266846 35.47938965 24.32533691 34.69604492 23.9777832 C31.82005674 22.70148293 28.94426753 21.42473557 26.06860352 20.14770508 C24.23403523 19.33316152 22.39924702 18.51911337 20.56445312 17.70507812 C13.36000413 14.50528198 6.16968953 11.27696932 -1 8 C-1.04241723 5.66705225 -1.04092937 3.33297433 -1 1 C-0.67 0.67 -0.34 0.34 0 0 Z " fill="#010101" transform="translate(58,154)"/>
<path d="M0 0 C8.06211526 6.05509078 13.61006291 14.05713288 15.625 24 C16.43381768 32.53899317 15.42632388 38.26019466 10.05859375 44.953125 C2.83573941 52.36567046 -7.76652711 56.50112316 -17.375 60 C-18.035 60 -18.695 60 -19.375 60 C-22.22118519 53.49630327 -25.05275383 46.98636972 -27.87255859 40.47119141 C-28.88967299 38.12128362 -29.90827125 35.77201764 -30.92822266 33.42333984 C-32.45990652 29.88968045 -33.98117003 26.35170039 -35.5 22.8125 C-35.98509033 21.69697754 -36.47018066 20.58145508 -36.9699707 19.43212891 C-37.4155835 18.38847168 -37.86119629 17.34481445 -38.3203125 16.26953125 C-38.71750488 15.34760986 -39.11469727 14.42568848 -39.52392578 13.47583008 C-40.375 11 -40.375 11 -40.375 7 C-37.29369487 5.68270177 -34.20962237 4.3720095 -31.125 3.0625 C-30.25230469 2.68931641 -29.37960938 2.31613281 -28.48046875 1.93164062 C-27.63613281 1.57392578 -26.79179687 1.21621094 -25.921875 0.84765625 C-25.14682617 0.51773682 -24.37177734 0.18781738 -23.57324219 -0.15209961 C-16.37757611 -2.92759364 -6.86090592 -4.0089215 0 0 Z M-20.5 6.875 C-21.51320312 7.22304688 -22.52640625 7.57109375 -23.5703125 7.9296875 C-25.93782597 8.83316757 -28.12361218 9.8487016 -30.375 11 C-27.9044443 18.78853153 -24.90569034 26.31477132 -21.8125 33.875 C-21.31814453 35.09703125 -20.82378906 36.3190625 -20.31445312 37.578125 C-19.83814453 38.74601562 -19.36183594 39.91390625 -18.87109375 41.1171875 C-18.43982178 42.17534668 -18.0085498 43.23350586 -17.56420898 44.32373047 C-16.40173119 47.14302869 -16.40173119 47.14302869 -14.375 50 C-6.43648321 47.86054158 2.26431501 44.40645573 6.625 37 C8.07446251 28.21181739 6.06657576 19.64004054 1.45703125 12.0859375 C-1.25286351 8.5253638 -4.21029387 6.52989205 -8.375 5 C-12.85358794 4.70101221 -16.28022103 5.39645852 -20.5 6.875 Z " fill="#010101" transform="translate(196.375,36)"/>
<path d="M0 0 C7.70153658 4.4752172 13.31970973 10.08361917 16.3046875 18.5625 C17.54165321 23.74636287 16.72731547 27.48512286 14.2109375 32.23828125 C11.00073666 36.14257957 7.9141115 39.2893044 3.0859375 41.11328125 C2.3640625 41.42265625 1.6421875 41.73203125 0.8984375 42.05078125 C0.14600195 43.97716137 0.14600195 43.97716137 -0.1015625 46.05078125 C-0.7615625 47.04078125 -1.4215625 48.03078125 -2.1015625 49.05078125 C-6.65580985 48.1898236 -8.99219761 45.52475887 -12.1171875 42.29296875 C-12.97917755 41.42105392 -12.97917755 41.42105392 -13.85858154 40.53152466 C-15.69681211 38.66990907 -17.52462565 36.79847582 -19.3515625 34.92578125 C-21.74877542 32.48189014 -24.15031326 30.04231376 -26.5546875 27.60546875 C-27.13005249 27.02146805 -27.70541748 26.43746735 -28.29821777 25.83576965 C-31.9137429 22.18687759 -35.60668647 18.68786855 -39.54199219 15.38110352 C-41.8657826 13.3988972 -43.97625484 11.24250477 -46.1015625 9.05078125 C-44.70996587 5.57178967 -43.46904762 4.57025624 -40.1015625 3.05078125 C-39.08835937 4.08138672 -39.08835937 4.08138672 -38.0546875 5.1328125 C-37.16265625 6.03386719 -36.270625 6.93492188 -35.3515625 7.86328125 C-34.46984375 8.75660156 -33.588125 9.64992188 -32.6796875 10.5703125 C-30.56707399 12.60290277 -28.49361585 14.36851943 -26.1015625 16.05078125 C-25.93140625 15.45910156 -25.76125 14.86742188 -25.5859375 14.2578125 C-23.5811622 7.72096536 -21.49577145 3.23551169 -15.4140625 -0.32421875 C-10.06070516 -2.757563 -5.32184401 -2.40373252 0 0 Z M-16.1015625 9.05078125 C-19.08769132 12.42221701 -19.64768973 15.57585152 -19.4453125 20.0703125 C-18.36236293 26.30957876 -12.89340767 30.42739094 -8.1015625 34.05078125 C-4.89902103 35.65205199 -2.64841686 35.45779732 0.8984375 35.05078125 C4.17209262 32.95228438 7.14327523 30.56110579 8.8984375 27.05078125 C9.28638472 23.01613017 9.19261335 20.62736591 7.3359375 16.98828125 C0.89720442 9.22878241 -6.05710856 3.0627414 -16.1015625 9.05078125 Z " fill="#010101" transform="translate(138.1015625,84.94921875)"/>
<path d="M0 0 C2 3 2 3 1.6875 5.625 C1 8 1 8 0 9 C0.53109375 9.23074219 1.0621875 9.46148437 1.609375 9.69921875 C6.18544245 11.81189223 9.20395164 13.63816456 12 18 C13.90747616 23.72242847 14.02012563 29.83733366 11.4375 35.3125 C4.73714308 42.70007302 -2.57172489 48.37360709 -12.83203125 49.09765625 C-17.77340607 48.8750718 -21.09795376 46.77903994 -24.75 43.625 C-28.35910555 39.41437686 -30.17046027 36.94052514 -30.07421875 31.328125 C-30.06350342 30.51762695 -30.05278809 29.70712891 -30.04174805 28.87207031 C-30.02797119 28.25428711 -30.01419434 27.63650391 -30 27 C-30.46897705 27.30292969 -30.9379541 27.60585937 -31.42114258 27.91796875 C-33.54715884 29.28568922 -35.67967934 30.64291721 -37.8125 32 C-38.91948242 32.71542969 -38.91948242 32.71542969 -40.04882812 33.4453125 C-40.76103516 33.89648438 -41.47324219 34.34765625 -42.20703125 34.8125 C-43.18893433 35.44091797 -43.18893433 35.44091797 -44.19067383 36.08203125 C-46 37 -46 37 -49 37 C-49.99 35.02 -50.98 33.04 -52 31 C-44.96179938 25.73987112 -37.53213779 21.25510432 -29.97973633 16.78320312 C-22.88236273 12.56895212 -15.91076718 8.17757317 -9.00415039 3.6574707 C-8.2589917 3.17753662 -7.51383301 2.69760254 -6.74609375 2.203125 C-6.09310303 1.77676758 -5.4401123 1.35041016 -4.76733398 0.91113281 C-3 0 -3 0 0 0 Z M-19.875 20.5 C-22.93603624 24.10121911 -24.02655733 25.56590396 -23.9375 30.375 C-22.79100292 34.80812206 -21.37773516 36.91598094 -18 40 C-13.13723566 41.5597546 -9.57110596 41.02796906 -4.9921875 39.0859375 C-0.20653092 36.47728548 3.98455613 33.17133402 6 28 C5.92002707 22.96170538 5.80642825 20.97184942 2.5625 17.0625 C-5.17814676 10.83222334 -13.19059314 14.6874723 -19.875 20.5 Z " fill="#010101" transform="translate(413,110)"/>
<path d="M0 0 C6.18502222 4.76785017 10.33558717 10.28425766 12 18 C12.07138389 21.90826818 11.75988083 25.48023834 10 29 C7.69 28.67 5.38 28.34 3 28 C2 25 2 25 2.6875 21.8125 C3.09496004 16.84148756 2.01421369 13.93659602 -1 10 C-4.50040956 6.86326935 -7.75659433 5.23026031 -12.375 4.375 C-21.32245476 5.91766461 -28.93249679 10.96381156 -34.375 18.125 C-36.82819545 22.83554756 -36.77871464 27.83712192 -36 33 C-34.03531694 36.92936613 -31.89076902 39.88786825 -28 42 C-23.05953231 43.11859646 -18.96285033 42.91154394 -14 42 C-13.505 45.465 -13.505 45.465 -13 49 C-17.79451505 51.82493727 -22.58696905 51.50353776 -28 51 C-32.77817735 49.31878945 -35.62512004 46.73013049 -39 43 C-39.70125 42.2575 -40.4025 41.515 -41.125 40.75 C-45.06859484 34.9660609 -46.7065845 29.14200623 -45.5703125 22.19140625 C-42.65110336 10.97444509 -34.59848575 3.84118376 -25 -2 C-16.7420154 -5.95695096 -7.59530084 -4.84457026 0 0 Z " fill="#010101" transform="translate(131,311)"/>
<path d="M0 0 C4.94752509 3.09448525 7.5693224 6.49800176 9.2421875 12.07421875 C9.54299151 17.35384767 7.76442327 22.80086394 5.1171875 27.32421875 C2.53993957 28.45075952 1.3657671 28.40610935 -1.32470703 27.51977539 C-2.65671143 26.8835022 -2.65671143 26.8835022 -4.015625 26.234375 C-4.98628906 25.77998047 -5.95695312 25.32558594 -6.95703125 24.85742188 C-7.96378906 24.37208984 -8.97054687 23.88675781 -10.0078125 23.38671875 C-12.00894894 22.43700533 -14.0114856 21.49023489 -16.015625 20.546875 C-16.90137207 20.12156494 -17.78711914 19.69625488 -18.69970703 19.25805664 C-20.7935432 18.19312331 -20.7935432 18.19312331 -22.8828125 18.32421875 C-22.90989817 19.92829203 -22.92924733 21.53249725 -22.9453125 23.13671875 C-22.95691406 24.03003906 -22.96851563 24.92335938 -22.98046875 25.84375 C-22.99291217 28.45835666 -22.99291217 28.45835666 -21.8828125 31.32421875 C-16.93793824 34.35494814 -10.09977233 34.0372843 -4.57421875 32.8125 C-3.73697266 32.57080078 -3.73697266 32.57080078 -2.8828125 32.32421875 C-0.8828125 35.32421875 -0.8828125 35.32421875 -0.8828125 37.32421875 C-2.47598099 40.51055572 -4.60990876 41.11203218 -7.8828125 42.32421875 C-14.64322346 43.21710322 -20.22295223 40.86276013 -25.71875 37.05078125 C-29.76547675 33.79365972 -32.06989937 30.99195644 -32.7578125 25.82421875 C-33.44013608 17.31378284 -29.90731197 9.50526458 -24.578125 2.984375 C-17.38869095 -4.0559694 -8.71366161 -4.29652865 0 0 Z M-17.8828125 7.32421875 C-18.59375131 8.63448141 -19.268278 9.96606943 -19.8828125 11.32421875 C-16.92716542 12.66356591 -13.9678747 13.99466122 -11.0078125 15.32421875 C-10.16605469 15.70578125 -9.32429688 16.08734375 -8.45703125 16.48046875 C-7.65136719 16.84140625 -6.84570312 17.20234375 -6.015625 17.57421875 C-5.27199707 17.909375 -4.52836914 18.24453125 -3.76220703 18.58984375 C-1.90863639 19.44553616 -1.90863639 19.44553616 0.1171875 19.32421875 C0.9155922 15.62252425 1.43847269 13.15578041 0.0546875 9.57421875 C-2.89599623 6.14761829 -5.98047828 4.60260912 -10.4453125 3.94921875 C-13.55585191 4.42776327 -15.37825585 5.42887858 -17.8828125 7.32421875 Z " fill="#010101" transform="translate(186.8828125,367.67578125)"/>
<path d="M0 0 C5.35025896 4.12415795 8.55475282 8.7022711 10 15.3125 C10.20015968 19.85458498 9.39812788 23.4123848 7.5625 27.5625 C4.00253663 31.38294849 -0.07845235 33.59867909 -5 35.3125 C-6.66630781 35.34708404 -8.33379585 35.35176203 -10 35.3125 C-11.34065238 31.37745351 -12.67126071 27.43908354 -14 23.5 C-14.3815625 22.38044922 -14.763125 21.26089844 -15.15625 20.10742188 C-15.5171875 19.03427734 -15.878125 17.96113281 -16.25 16.85546875 C-16.58515625 15.86571045 -16.9203125 14.87595215 -17.265625 13.85620117 C-18 11.3125 -18 11.3125 -18 8.3125 C-19.11375 8.910625 -20.2275 9.50875 -21.375 10.125 C-22.00148438 10.46144531 -22.62796875 10.79789063 -23.2734375 11.14453125 C-25.30502365 12.36013493 -25.30502365 12.36013493 -27 15.3125 C-27.4949529 20.55900072 -26.72011372 23.81385039 -24 28.3125 C-21.77810176 30.53439824 -19.91517292 31.23848892 -17 32.3125 C-17.33 34.2925 -17.66 36.2725 -18 38.3125 C-21.5821004 38.65365242 -23.75636512 38.42188709 -27.0625 36.9375 C-31.93812748 32.58055629 -34.51086734 27.69814865 -35.44921875 21.203125 C-35.66901669 15.10941648 -35.29825898 10.95926647 -31 6.3125 C-23.42335896 -1.26414104 -9.89679555 -5.19210901 0 0 Z M-12 6.3125 C-11.19086128 9.27176326 -10.37711805 12.22974081 -9.5625 15.1875 C-9.33240234 16.02925781 -9.10230469 16.87101562 -8.86523438 17.73828125 C-8.53168945 18.94677734 -8.53168945 18.94677734 -8.19140625 20.1796875 C-7.88505249 21.29512939 -7.88505249 21.29512939 -7.57250977 22.43310547 C-7.03783733 24.3761295 -7.03783733 24.3761295 -6 26.3125 C-2.19902189 25.76950313 -0.42542103 24.23973228 2 21.3125 C3.44940452 17.34310807 2.51033969 14.92294603 0.9375 11.15234375 C-0.38056839 8.56563453 -1.310582 7.47549157 -4 6.3125 C-6.67287518 6.180392 -9.32199633 6.26908758 -12 6.3125 Z " fill="#010101" transform="translate(435,159.6875)"/>
<path d="M0 0 C2.42334879 1.20137688 4.75921929 2.46348663 7.0703125 3.8671875 C5.54719754 9.31059267 2.96713434 13.75837819 0.0703125 18.5546875 C-0.60644531 19.69260742 -0.60644531 19.69260742 -1.296875 20.85351562 C-3.1175071 23.90495967 -4.95806784 26.90975801 -6.9296875 29.8671875 C-0.37333584 31.01472433 -0.37333584 31.01472433 6.0078125 29.7421875 C9.59076348 26.48495933 10.9772428 24.19343069 11.3203125 19.3046875 C11.12699515 16.64657395 10.8773348 14.38913219 10.0703125 11.8671875 C13.0703125 9.8671875 13.0703125 9.8671875 15.1328125 9.9296875 C17.0703125 10.8671875 17.0703125 10.8671875 18.3203125 12.9921875 C20.00847706 19.463485 19.16692457 25.0303195 16.0703125 30.8671875 C11.55079923 36.0820105 7.51023564 39.56543986 0.5078125 40.1796875 C-8.16624858 40.00493535 -14.94260084 35.79899279 -21.078125 29.9453125 C-24.5277226 26.07361224 -25.6505416 22.71652906 -26.4296875 17.5546875 C-25.55524938 11.10570638 -22.84882957 5.02059234 -17.8046875 0.7421875 C-12.25972471 -2.62568578 -5.89749812 -2.28036594 0 0 Z M-15.3046875 7.9296875 C-17.17924396 11.31830879 -18.32353351 14.0282122 -18.9296875 17.8671875 C-17.76253383 21.30380663 -17.03668018 23.25650335 -13.8125 25.03515625 C-12.88050781 25.44701172 -12.88050781 25.44701172 -11.9296875 25.8671875 C-10.4229903 23.0790853 -8.92548946 20.28614792 -7.4296875 17.4921875 C-7.00042969 16.698125 -6.57117188 15.9040625 -6.12890625 15.0859375 C-5.72285156 14.32539063 -5.31679687 13.56484375 -4.8984375 12.78125 C-4.33286133 11.7286499 -4.33286133 11.7286499 -3.75585938 10.65478516 C-2.78984422 8.89282039 -2.78984422 8.89282039 -2.9296875 6.8671875 C-7.32489125 4.66958563 -11.69024617 4.79083056 -15.3046875 7.9296875 Z " fill="#010101" transform="translate(108.9296875,122.1328125)"/>
<path d="M0 0 C4.10099667 2.3080331 6.28704663 4.58098785 8.0078125 8.96484375 C9.7012607 15.17812904 8.21296376 19.54157919 5.6328125 25.1796875 C4.5625 27 4.5625 27 2.5625 28 C-0.05126953 27.19555664 -0.05126953 27.19555664 -3.3203125 25.91015625 C-5.07021484 25.22856445 -5.07021484 25.22856445 -6.85546875 24.53320312 C-8.07878906 24.04787109 -9.30210937 23.56253906 -10.5625 23.0625 C-11.80571453 22.57546917 -13.04920106 22.08913206 -14.29296875 21.60351562 C-17.34389743 20.40915982 -20.39184132 19.20771765 -23.4375 18 C-23.48324749 19.43850428 -23.51587775 20.87742971 -23.54296875 22.31640625 C-23.56254639 23.11763916 -23.58212402 23.91887207 -23.60229492 24.74438477 C-23.35005882 28.19684305 -21.97051225 29.74082691 -19.4375 32 C-15.74658245 34.03971759 -12.62060338 34.36374812 -8.4375 34 C-7.4475 33.34 -6.4575 32.68 -5.4375 32 C-3.25 32.375 -3.25 32.375 -1.4375 33 C-1.1075 34.65 -0.7775 36.3 -0.4375 38 C-4.80249657 41.67578659 -8.05592369 42.69495338 -13.7734375 42.453125 C-19.67034283 41.4501323 -24.57760695 38.72040107 -28.9375 34.6875 C-32.74728179 27.86164095 -32.75276074 22.43353036 -31.26171875 14.90234375 C-29.25867353 7.84896649 -25.31502888 3.21648811 -19.4375 -1 C-12.89983088 -3.17922304 -6.29083682 -2.78140857 0 0 Z M-20.4375 10 C-17.70035181 13.46566672 -13.86690865 14.65796074 -9.875 16.1875 C-9.18986328 16.46013672 -8.50472656 16.73277344 -7.79882812 17.01367188 C-4.22554313 18.49370898 -4.22554313 18.49370898 -0.4375 19 C0.91364182 13.07482716 0.91364182 13.07482716 -1.3125 7.5625 C-4.20096863 4.6499608 -7.10579635 3.850058 -11.14453125 3.61328125 C-15.24601001 4.30501276 -17.73257713 6.99936209 -20.4375 10 Z " fill="#010101" transform="translate(331.4375,47)"/>
<path d="M0 0 C2.86597382 1.27229867 4.58050283 2.20550283 6.8125 4.4375 C9.23135408 12.38516341 7.29418004 20.46277544 5.75537109 28.42285156 C5.10050098 31.81450392 4.6875 34.84107081 4.6875 38.3125 C6.0075 38.6425 7.3275 38.9725 8.6875 39.3125 C8.6875 41.2925 8.6875 43.2725 8.6875 45.3125 C1.42596154 45.92788462 1.42596154 45.92788462 -2.3125 42.8125 C-2.9725 41.9875 -3.6325 41.1625 -4.3125 40.3125 C-5.3025 40.828125 -6.2925 41.34375 -7.3125 41.875 C-11.73135566 43.76240596 -14.64763334 43.36585699 -19.3125 42.3125 C-22.48785525 40.7601041 -25.04337008 39.03545591 -27.3125 36.3125 C-28.88983174 31.58050479 -28.84007348 27.75638532 -27.125 23.0625 C-24.82594171 19.57427362 -22.54094703 18.00546228 -18.56640625 16.76953125 C-14.49698196 15.94436203 -10.34812071 15.85406715 -6.2109375 15.59375 C-3.37566719 15.49355771 -3.37566719 15.49355771 -1.3125 14.3125 C-1.3125 12.3325 -1.3125 10.3525 -1.3125 8.3125 C-6.06785882 6.34076585 -9.29844311 6.10541223 -14.3125 7.3125 C-15.66363205 8.28831759 -17.00196944 9.28279741 -18.3125 10.3125 C-19.3025 9.9825 -20.2925 9.6525 -21.3125 9.3125 C-22.5 6.25 -22.5 6.25 -23.3125 3.3125 C-14.73950332 -1.60643252 -9.42059535 -3.32651992 0 0 Z M-20.3125 26.3125 C-20.8602975 31.10742927 -20.8602975 31.10742927 -18.8125 35.25 C-15.27357366 36.75404369 -12.04660498 37.10683247 -8.3125 36.3125 C-4.6181366 33.50157132 -2.57264815 30.78029798 -1.3125 26.3125 C-1.3125 24.9925 -1.3125 23.6725 -1.3125 22.3125 C-3.37433633 22.23099256 -5.43711349 22.1730806 -7.5 22.125 C-8.64855469 22.09019531 -9.79710937 22.05539062 -10.98046875 22.01953125 C-14.89162447 22.3634195 -17.5184851 23.5184851 -20.3125 26.3125 Z " fill="#010101" transform="translate(226.3125,378.6875)"/>
<path d="M0 0 C3.90384534 2.63325417 5.74761404 6.06677416 7.125 10.5 C7.73526274 13.83001637 8.15803427 17.11068346 8.125 20.5 C6.29337619 22.33162381 3.37684332 21.99868881 0.90234375 22.25390625 C-0.98774414 22.45209961 -0.98774414 22.45209961 -2.91601562 22.65429688 C-4.25650082 22.7904591 -5.59699574 22.92652556 -6.9375 23.0625 C-8.28194293 23.20207106 -9.62634463 23.34203986 -10.97070312 23.48242188 C-14.2717494 23.82554138 -17.57316731 24.16454667 -20.875 24.5 C-20.25975464 25.79316331 -19.63725922 27.08287897 -19.01171875 28.37109375 C-18.66584717 29.08966553 -18.31997559 29.8082373 -17.96362305 30.54858398 C-16.34090806 33.45738886 -15.0384404 34.44551987 -11.875 35.5 C-6.9213243 35.77971575 -3.82720535 35.34640476 -0.0625 32 C0.659375 31.175 1.38125 30.35 2.125 29.5 C5.17633626 28.24356742 5.89320321 28.4227344 9.125 29.5 C8.69034864 34.42604873 6.52873025 37.01891224 3.125 40.5 C-0.87485741 42.56624397 -4.34453856 42.79794638 -8.8125 42.8125 C-9.99714844 42.82925781 -11.18179688 42.84601563 -12.40234375 42.86328125 C-17.26350246 42.35474609 -20.56703055 40.77059889 -24.0625 37.375 C-28.7900849 29.87607223 -29.76746386 22.2657067 -28.875 13.5 C-27.66782055 8.36246886 -24.93573016 4.82241559 -20.875 1.5 C-14.41948383 -2.17078371 -6.86729778 -3.31575537 0 0 Z M-18.875 8.5 C-19.865 11.47 -20.855 14.44 -21.875 17.5 C-10.985 16.51 -10.985 16.51 0.125 15.5 C-0.95485227 10.10073865 -1.60650209 8.74777015 -5.875 5.5 C-10.9852524 4.75669056 -14.72426096 5.38694572 -18.875 8.5 Z " fill="#010101" transform="translate(246.875,34.5)"/>
<path d="M0 0 C5.79951503 3.17458947 10.76272309 7.97566927 12.875 14.3125 C13.71148974 22.25915256 11.17365202 28.1091206 6.265625 34.36328125 C1.47867701 39.49058563 -3.66065925 42.88705464 -10.6875 43.75 C-17.92232738 42.82920379 -23.18306929 39.4970578 -28.125 34.3125 C-31.33638374 29.85799997 -31.76880482 25.55584797 -31.59375 20.1875 C-30.24748751 11.93042342 -24.8601299 6.49933429 -18.37109375 1.6875 C-12.26585523 -2.04996776 -6.6428884 -3.09000647 0 0 Z M-19.375 13.75 C-22.44039746 17.53146143 -24.16647168 20.32185924 -24.0625 25.3125 C-22.53837628 30.18969591 -19.27031612 32.54895592 -15.125 35.3125 C-10.49760762 36.03836547 -7.76723017 35.43318186 -4 32.8125 C1.05906864 28.62941796 4.30977263 24.24140544 5.5625 17.75 C4.63292106 13.10210531 2.32267586 10.47435817 -1.125 7.3125 C-8.66185311 3.54407344 -14.47005395 8.31061672 -19.375 13.75 Z " fill="#010101" transform="translate(383.125,79.6875)"/>
<path d="M0 0 C0.99 0 1.98 0 3 0 C3.25990723 0.48017578 3.51981445 0.96035156 3.78759766 1.45507812 C10.08141282 13.05512237 16.56699545 24.52048697 23.31494141 35.86328125 C31.94121559 50.47027526 31.94121559 50.47027526 31 58 C29.08480722 62.89094931 26.33417683 65.99015498 22 69 C19.56729921 68.05830937 18.27562314 67.47018066 16.9375 65.1875 C17.03677673 61.71281435 19.5928921 60.34979581 22 58 C23.25153259 55.65904469 23.25153259 55.65904469 23 53 C21.49764563 49.29709184 20.49086659 46.8525941 16.97351074 44.84109497 C14.40998378 43.84701179 11.841301 43.02851269 9.203125 42.25390625 C7.77996979 41.80264626 7.77996979 41.80264626 6.32806396 41.3422699 C3.30907543 40.39112536 0.28040778 39.47652793 -2.75 38.5625 C-4.80412948 37.92230441 -6.85752594 37.27975176 -8.91015625 36.63476562 C-13.93193336 35.06243871 -18.96213265 33.51993061 -24 32 C-22.92598892 29.08482708 -22.22189824 27.22189824 -20 25 C-12.56962371 26.1943026 -5.54378579 28.70055289 1.5625 31.125 C2.66658203 31.49753906 3.77066406 31.87007813 4.90820312 32.25390625 C7.60689373 33.16515243 10.30408033 34.08059524 13 35 C12.02611965 33.1430513 11.04542444 31.28967735 10.0625 29.4375 C9.75763672 28.86265869 9.45277344 28.28781738 9.13867188 27.69555664 C7.35476524 24.37654671 5.491727 21.13418756 3.49609375 17.9375 C3.08157959 17.27049072 2.66706543 16.60348145 2.23999023 15.91625977 C1.42337179 14.61311102 0.59626798 13.31646538 -0.24194336 12.02709961 C-3.0314671 7.56542439 -3.0314671 7.56542439 -2.875 4.75390625 C-2 3 -2 3 0 0 Z " fill="#010101" transform="translate(391,304)"/>
<path d="M0 0 C6.75 -0.125 6.75 -0.125 9 1 C9.74609375 3.265625 9.74609375 3.265625 10.4375 6.25 C10.69273437 7.33410156 10.94796875 8.41820312 11.2109375 9.53515625 C11.47132813 10.67855469 11.73171875 11.82195313 12 13 C12.26039063 14.11246094 12.52078125 15.22492187 12.7890625 16.37109375 C14.23505781 22.57134637 15.63005281 28.78254735 17 35 C17.33733154 34.34515625 17.67466309 33.6903125 18.0222168 33.015625 C19.573785 30.0085823 21.13060094 27.00428587 22.6875 24 C23.48317383 22.45505859 23.48317383 22.45505859 24.29492188 20.87890625 C27.30454305 15.0812311 30.44799311 9.48287519 34 4 C36.31 4.33 38.62 4.66 41 5 C40.40141649 8.78242126 39.3032096 11.71444309 37.5234375 15.09765625 C37.02110596 16.05921631 36.51877441 17.02077637 36.0012207 18.01147461 C33.82431619 22.09566252 31.64673803 26.17937579 29.45361328 30.25488281 C28.24135102 32.54421383 27.08616158 34.84513089 25.96484375 37.1796875 C22.19954217 44.6034736 22.19954217 44.6034736 18.6484375 45.77734375 C16.19246477 45.87480299 14.33723386 45.75210377 12 45 C9.82104682 42.82104682 9.55688015 41.95015087 8.85498047 39.04101562 C8.65492401 38.22677124 8.45486755 37.41252686 8.24874878 36.5736084 C8.04033356 35.69338013 7.83191833 34.81315186 7.6171875 33.90625 C7.39805695 33.0037854 7.17892639 32.1013208 6.95315552 31.17150879 C6.49099082 29.26244115 6.03224896 27.35254214 5.57666016 25.44189453 C4.8774395 22.51022822 4.16818952 19.58113467 3.45703125 16.65234375 C3.00982853 14.79962103 2.56319464 12.9467609 2.1171875 11.09375 C1.90472382 10.21352173 1.69226013 9.33329346 1.47335815 8.4263916 C1.27960602 7.61214722 1.08585388 6.79790283 0.88623047 5.95898438 C0.71461395 5.24109741 0.54299744 4.52321045 0.36618042 3.78356934 C0 2 0 2 0 0 Z " fill="#010101" transform="translate(260,32)"/>
<path d="M0 0 C0.12662639 6.35354365 0.21427701 12.70676289 0.2746582 19.0612793 C0.29982499 21.22351236 0.33396158 23.38566018 0.37719727 25.54760742 C0.43775296 28.65304572 0.46618787 31.75736097 0.48828125 34.86328125 C0.51408768 35.83211746 0.5398941 36.80095367 0.56648254 37.79914856 C0.56753055 40.29863621 0.53102749 42.55754041 0 45 C-2.37524414 47.07006836 -2.37524414 47.07006836 -5 48 C-5.81984375 48.33515625 -6.6396875 48.6703125 -7.484375 49.015625 C-10 49 -10 49 -12.578125 46.859375 C-13.486116 45.83809585 -14.37580598 44.80035403 -15.25 43.75 C-15.72743652 43.2029541 -16.20487305 42.6559082 -16.69677734 42.09228516 C-20.49422115 37.70848064 -24.15513243 33.20635399 -27.78515625 28.68359375 C-30.8331612 24.99050839 -34.07613662 21.49130703 -37.34765625 17.99609375 C-39 16 -39 16 -39 14 C-34.64466078 11.94331204 -34.64466078 11.94331204 -32.08984375 12.16796875 C-29.20338307 13.31715777 -27.84140495 15.03196587 -25.8125 17.375 C-25.03261719 18.27089844 -24.25273437 19.16679687 -23.44921875 20.08984375 C-20.23587913 23.90792672 -17.0695581 27.76103427 -13.9453125 31.65234375 C-11.90815303 34.18515961 -11.90815303 34.18515961 -9 37 C-8.34 25.45 -7.68 13.9 -7 2 C-1 0 -1 0 0 0 Z " fill="#000000" transform="translate(328,363)"/>
<path d="M0 0 C0.53625 0.268125 1.0725 0.53625 1.625 0.8125 C1.955 2.4625 2.285 4.1125 2.625 5.8125 C-0.015 7.7925 -2.655 9.7725 -5.375 11.8125 C-3.42657358 15.70935283 -1.10873763 18.91274301 1.5625 22.3125 C2.4467855 23.44778356 3.33090411 24.58319713 4.21484375 25.71875 C5.40787109 27.25015625 5.40787109 27.25015625 6.625 28.8125 C7.16382813 29.59367187 7.70265625 30.37484375 8.2578125 31.1796875 C9.59917598 33.12240857 9.59917598 33.12240857 12.5625 33.4375 C15.92649108 33.0934208 15.92649108 33.0934208 18 29.8125 C18.53625 28.8225 19.0725 27.8325 19.625 26.8125 C21.605 27.4725 23.585 28.1325 25.625 28.8125 C25.42646068 33.08109537 24.92969743 34.51457363 21.8125 37.5625 C20.760625 38.305 19.70875 39.0475 18.625 39.8125 C18.00625 40.26625 17.3875 40.72 16.75 41.1875 C13.32770791 42.1940565 9.97466696 41.89786695 6.625 40.8125 C3.03595776 38.29681619 0.3711997 35.50905095 -2.3125 32.0625 C-3.33150391 30.75925781 -3.33150391 30.75925781 -4.37109375 29.4296875 C-7.06586934 25.91019501 -9.74415356 22.38008722 -12.375 18.8125 C-15.92018884 20.21009905 -15.92018884 20.21009905 -19.375 21.8125 C-20.9375 20 -20.9375 20 -22.375 17.8125 C-21.3772242 14.81917261 -20.6227975 13.86483685 -18.375 11.8125 C-19.695 10.1625 -21.015 8.5125 -22.375 6.8125 C-21.32625002 4.19062506 -20.72568687 3.01878639 -18.25 1.5625 C-17.63125 1.315 -17.0125 1.0675 -16.375 0.8125 C-15.055 2.4625 -13.735 4.1125 -12.375 5.8125 C-9.04355957 5.42810303 -7.99827438 4.48286509 -5.375 2.1875 C-2.375 -0.1875 -2.375 -0.1875 0 0 Z " fill="#010101" transform="translate(366.375,336.1875)"/>
<path d="M0 0 C0.66 2.97 1.32 5.94 2 9 C5.96 9 9.92 9 14 9 C14.33 11.31 14.66 13.62 15 16 C10.38 16 5.76 16 1 16 C1.3073964 20.45874007 1.62067137 24.91692902 1.9375 29.375 C2.02451172 30.64601563 2.11152344 31.91703125 2.20117188 33.2265625 C2.28818359 34.43828125 2.37519531 35.65 2.46484375 36.8984375 C2.543396 38.01911621 2.62194824 39.13979492 2.70288086 40.29443359 C2.83780869 42.96470413 2.83780869 42.96470413 4 45 C9.57830016 45.12469099 9.57830016 45.12469099 15 44 C17 47 17 47 16.8125 49.0625 C16 51 16 51 13 53 C7.71187856 53.64783254 2.72257688 53.8268369 -2.125 51.5 C-7.07620893 44.89838809 -6.24713251 36.35406001 -6.125 28.5 C-6.11597656 27.39140625 -6.10695312 26.2828125 -6.09765625 25.140625 C-6.07426167 22.42685408 -6.04148175 19.71354455 -6 17 C-8.64 17 -11.28 17 -14 17 C-14 14.69 -14 12.38 -14 10 C-11.69 10 -9.38 10 -7 10 C-7 7.36 -7 4.72 -7 2 C-2.25 0 -2.25 0 0 0 Z " fill="#010101" transform="translate(255,371)"/>
<path d="M0 0 C2.96175123 0.61277612 4.38058783 1.25372522 7 3 C5.75263064 7.17667057 4.23451963 10.51235956 1.8046875 14.125 C1.1744165 15.07270264 0.54414551 16.02040527 -0.10522461 16.99682617 C-0.77175049 17.98787354 -1.43827637 18.9789209 -2.125 20 C-8.73267498 29.96754883 -8.73267498 29.96754883 -14.9375 40.1875 C-15.54464844 41.23292969 -16.15179688 42.27835938 -16.77734375 43.35546875 C-18.27976883 46.11954105 -18.27976883 46.11954105 -18 50 C-16.07977297 51.77409808 -16.07977297 51.77409808 -14 53 C-15.485 55.475 -15.485 55.475 -17 58 C-21.3588161 56.81123197 -24.39740086 55.80379875 -27 52 C-27.571761 45.82758014 -26.57835109 42.18537017 -23.125 37 C-22.72224854 36.36336426 -22.31949707 35.72672852 -21.90454102 35.07080078 C-21.0509125 33.72386605 -20.18982413 32.38163346 -19.32177734 31.04394531 C-17.57889034 28.34881233 -15.8875863 25.62297104 -14.19433594 22.89648438 C-12.94902154 20.89353116 -11.69620049 18.89546274 -10.44140625 16.8984375 C-6.92216401 11.28951378 -3.46060641 5.64523504 0 0 Z " fill="#010101" transform="translate(362,46)"/>
<path d="M0 0 C0.495 3.465 0.495 3.465 1 7 C0.01 7.66 -0.98 8.32 -2 9 C-1.525625 9.598125 -1.05125 10.19625 -0.5625 10.8125 C2.52218678 15.13106149 2.16439228 18.90383941 2 24 C1 25 1 25 -2.0625 25.0625 C-3.031875 25.041875 -4.00125 25.02125 -5 25 C-6 22 -6 22 -5.8125 19.125 C-5.80208333 15.94791667 -5.80208333 15.94791667 -7.375 13.1875 C-11.89659631 9.41950308 -17.0216106 9.80687677 -22.7109375 10.17578125 C-24.53264188 10.35064399 -26.35305416 10.53951889 -28.171875 10.7421875 C-32.77880753 11.16215649 -37.37858481 11.08045017 -42 11 C-42.38063221 8.6739143 -42.71269945 6.33944736 -43 4 C-41.04584229 2.04584229 -37.42638253 2.47322981 -34.74609375 2.24609375 C-34.01181656 2.18092056 -33.27753937 2.11574738 -32.52101135 2.04859924 C-30.96008082 1.91115251 -29.3989503 1.77596167 -27.83764648 1.64282227 C-25.47127544 1.44038934 -23.10576612 1.22956816 -20.74023438 1.01757812 C-19.22139854 0.88490773 -17.70251945 0.75273129 -16.18359375 0.62109375 C-15.13467201 0.52736732 -15.13467201 0.52736732 -14.06455994 0.43174744 C-9.36053476 0.03676792 -4.72075228 -0.05252989 0 0 Z " fill="#010101" transform="translate(449,201)"/>
<path d="M0 0 C2.375 0.25 2.375 0.25 5 1 C6.25 3 6.25 3 7 5 C8.21956883 6.40446889 8.21956883 6.40446889 11.75 6.75 C16.01033245 7.77862081 18.34852906 9.40768453 21 13 C21.125 15.1875 21.125 15.1875 20 17 C17.4375 18.25 17.4375 18.25 15 19 C14.731875 18.360625 14.46375 17.72125 14.1875 17.0625 C13.11332248 14.66868314 13.11332248 14.66868314 10 14 C5.82481154 13.52733715 3.67432444 13.58392747 0.0625 15.8125 C-4.3200219 19.92622722 -7.5643831 25.10560926 -11 30 C-12.15975598 31.56763626 -13.32557024 33.13082659 -14.5 34.6875 C-14.9846875 35.33074219 -15.469375 35.97398437 -15.96875 36.63671875 C-16.3090625 37.08660156 -16.649375 37.53648437 -17 38 C-18.98 37.01 -20.96 36.02 -23 35 C-22.42060186 30.83239931 -19.99796142 27.91113591 -17.5625 24.625 C-16.65738847 23.3816295 -15.75244569 22.13813615 -14.84765625 20.89453125 C-14.3798877 20.25596191 -13.91211914 19.61739258 -13.43017578 18.95947266 C-11.09581163 15.76117858 -8.79898511 12.53626644 -6.5 9.3125 C-5.86880249 8.43102295 -5.86880249 8.43102295 -5.22485352 7.53173828 C-3.44485551 5.04360034 -1.69721389 2.54582084 0 0 Z " fill="#010101" transform="translate(143,345)"/>
<path d="M0 0 C2.88636136 2.88636136 3.02152381 6.26532965 3.7265625 10.1484375 C3.87910492 10.95737457 4.03164734 11.76631165 4.18881226 12.59976196 C4.51010646 14.3122376 4.82760303 16.02542944 5.14160156 17.73925781 C5.62209111 20.3591392 6.11470158 22.97651375 6.609375 25.59375 C6.9199907 27.25767828 7.22990955 28.92173682 7.5390625 30.5859375 C7.68590485 31.36834808 7.83274719 32.15075867 7.98403931 32.95687866 C8.608359 36.38464066 9 39.50244412 9 43 C6.29120665 44.35439668 3.99066732 44.06501451 1 44 C0.20667324 40.06283264 -0.58434958 36.12520561 -1.375 32.1875 C-1.59671875 31.08728516 -1.8184375 29.98707031 -2.046875 28.85351562 C-6.30427657 7.62911661 -6.30427657 7.62911661 -6 2 C-4.02 1.34 -2.04 0.68 0 0 Z " fill="#010101" transform="translate(282,377)"/>
<path d="M0 0 C2.76827611 1.84638886 3.76451729 3.84181994 5.34545898 6.76220703 C6.23974609 8.39029297 6.23974609 8.39029297 7.15209961 10.05126953 C8.06958984 11.76056641 8.06958984 11.76056641 9.00561523 13.50439453 C10.22125547 15.73715052 11.43866749 17.96894287 12.65795898 20.19970703 C13.23400879 21.2622168 13.81005859 22.32472656 14.40356445 23.41943359 C15.8681054 26.02373022 17.42290694 28.50724505 19.07202148 30.99658203 C19.73073242 32.11291016 20.38944336 33.22923828 21.06811523 34.37939453 C20.06811523 37.37939453 20.06811523 37.37939453 17.06811523 39.37939453 C16.07811523 39.37939453 15.08811523 39.37939453 14.06811523 39.37939453 C12.66113281 37.56616211 12.66113281 37.56616211 11.21264648 35.02392578 C10.67591309 34.09684814 10.13917969 33.16977051 9.58618164 32.21459961 C9.02334473 31.21710693 8.46050781 30.21961426 7.88061523 29.19189453 C6.71908633 27.1703531 5.55632878 25.14951712 4.39233398 23.12939453 C3.82691895 22.14326172 3.26150391 21.15712891 2.67895508 20.14111328 C0.01922238 15.58111082 -2.84677407 11.1592702 -5.73657227 6.74267578 C-6.13102539 5.96279297 -6.52547852 5.18291016 -6.93188477 4.37939453 C-5.93188477 1.37939453 -5.93188477 1.37939453 -4.11938477 0.06689453 C-1.93188477 -0.62060547 -1.93188477 -0.62060547 0 0 Z " fill="#010101" transform="translate(338.931884765625,356.62060546875)"/>
<path d="M0 0 C2.5625 0.375 2.5625 0.375 4.5 2.0625 C5.5625 4.375 5.5625 4.375 4.8125 7.0625 C3.5625 9.375 3.5625 9.375 2.5625 10.375 C0.125 10.5625 0.125 10.5625 -2.4375 10.375 C-4.4375 8.375 -4.4375 8.375 -4.6875 5.375 C-4.37594563 1.63634762 -3.76270131 0.57887713 0 0 Z " fill="#020202" transform="translate(277.4375,361.625)"/>
<path d="M0 0 C2.25 2 2.25 2 2.5625 5.1875 C2.4078125 6.5796875 2.4078125 6.5796875 2.25 8 C-0.51250036 9.38125018 -2.69731099 9.19079306 -5.75 9 C-6.41 8.34 -7.07 7.68 -7.75 7 C-7.625 4 -7.625 4 -6.75 1 C-4.15642241 -1.31569427 -3.26673687 -1.18790432 0 0 Z " fill="#020202" transform="translate(331.75,343)"/>
<path d="" fill="#FFFFFF" transform="translate(0,0)"/>
<path d="" fill="#FFFFFF" transform="translate(0,0)"/>
<path d="" fill="#FFFFFF" transform="translate(0,0)"/>
<path d="" fill="#FFFFFF" transform="translate(0,0)"/>
<path d="" fill="#FFFFFF" transform="translate(0,0)"/>
<path d="" fill="#FFFFFF" transform="translate(0,0)"/>
<path d="" fill="#FFFFFF" transform="translate(0,0)"/>
<path d="" fill="#FFFFFF" transform="translate(0,0)"/>
<path d="" fill="#FFFFFF" transform="translate(0,0)"/>
<path d="" fill="#FFFFFF" transform="translate(0,0)"/>
<path d="" fill="#FFFFFF" transform="translate(0,0)"/>
<path d="" fill="#FFFFFF" transform="translate(0,0)"/>
<path d="" fill="#FFFFFF" transform="translate(0,0)"/>
<path d="" fill="#FFFFFF" transform="translate(0,0)"/>
<path d="" fill="#FFFFFF" transform="translate(0,0)"/>
<path d="" fill="#FFFFFF" transform="translate(0,0)"/>
<path d="" fill="#FFFFFF" transform="translate(0,0)"/>
<path d="" fill="#FFFFFF" transform="translate(0,0)"/>
<path d="" fill="#FFFFFF" transform="translate(0,0)"/>
<path d="" fill="#FFFFFF" transform="translate(0,0)"/>
<path d="" fill="#FFFFFF" transform="translate(0,0)"/>
<path d="" fill="#FFFFFF" transform="translate(0,0)"/>
<path d="" fill="#FFFFFF" transform="translate(0,0)"/>
<path d="" fill="#FFFFFF" transform="translate(0,0)"/>
<path d="" fill="#FFFFFF" transform="translate(0,0)"/>
<path d="" fill="#FFFFFF" transform="translate(0,0)"/>
<path d="" fill="#FFFFFF" transform="translate(0,0)"/>
<path d="" fill="#FFFFFF" transform="translate(0,0)"/>
<path d="" fill="#FFFFFF" transform="translate(0,0)"/>
<path d="" fill="#FFFFFF" transform="translate(0,0)"/>
<path d="" fill="#FFFFFF" transform="translate(0,0)"/>
<path d="" fill="#FFFFFF" transform="translate(0,0)"/>
<path d="" fill="#FFFFFF" transform="translate(0,0)"/>
<path d="" fill="#FFFFFF" transform="translate(0,0)"/>
<path d="" fill="#FFFFFF" transform="translate(0,0)"/>
<path d="" fill="#FFFFFF" transform="translate(0,0)"/>
<path d="" fill="#FFFFFF" transform="translate(0,0)"/>
<path d="" fill="#FFFFFF" transform="translate(0,0)"/>
<path d="" fill="#FFFFFF" transform="translate(0,0)"/>
<path d="" fill="#FFFFFF" transform="translate(0,0)"/>
<path d="" fill="#FFFFFF" transform="translate(0,0)"/>
<path d="" fill="#FFFFFF" transform="translate(0,0)"/>
<path d="" fill="#FFFFFF" transform="translate(0,0)"/>
<path d="" fill="#FFFFFF" transform="translate(0,0)"/>
<path d="" fill="#FFFFFF" transform="translate(0,0)"/>
<path d="" fill="#FFFFFF" transform="translate(0,0)"/>
<path d="" fill="#FFFFFF" transform="translate(0,0)"/>
<path d="" fill="#FFFFFF" transform="translate(0,0)"/>
<path d="" fill="#FFFFFF" transform="translate(0,0)"/>
<path d="" fill="#FFFFFF" transform="translate(0,0)"/>
<path d="" fill="#FFFFFF" transform="translate(0,0)"/>
<path d="" fill="#FFFFFF" transform="translate(0,0)"/>
<path d="" fill="#FFFFFF" transform="translate(0,0)"/>
<path d="" fill="#FFFFFF" transform="translate(0,0)"/>
<path d="" fill="#FFFFFF" transform="translate(0,0)"/>
<path d="" fill="#FFFFFF" transform="translate(0,0)"/>
<path d="" fill="#FFFFFF" transform="translate(0,0)"/>
<path d="" fill="#FFFFFF" transform="translate(0,0)"/>
<path d="" fill="#FFFFFF" transform="translate(0,0)"/>
<path d="" fill="#FFFFFF" transform="translate(0,0)"/>
<path d="" fill="#FFFFFF" transform="translate(0,0)"/>
<path d="" fill="#FFFFFF" transform="translate(0,0)"/>
<path d="" fill="#FFFFFF" transform="translate(0,0)"/>
<path d="" fill="#FFFFFF" transform="translate(0,0)"/>
<path d="" fill="#FFFFFF" transform="translate(0,0)"/>
<path d="" fill="#FFFFFF" transform="translate(0,0)"/>
<path d="" fill="#FFFFFF" transform="translate(0,0)"/>
<path d="" fill="#FFFFFF" transform="translate(0,0)"/>
<path d="" fill="#FFFFFF" transform="translate(0,0)"/>
<path d="" fill="#FFFFFF" transform="translate(0,0)"/>
<path d="" fill="#FFFFFF" transform="translate(0,0)"/>
<path d="" fill="#FFFFFF" transform="translate(0,0)"/>
</svg>
